<svg width="400" height="120" viewBox="0 0 400 120" fill="none" xmlns="http://www.w3.org/2000/svg">
<path d="M16.5008 8.50006C16.8008 8.60006 16.9008 9.00007 16.7008 9.30007C16.6008 9.40007 16.6008 9.50006 16.5008 9.50006L5.10078 16.5001C4.60078 16.8001 4.30078 16.6001 4.30078 16.0001V2.00006C4.30078 1.50006 4.70078 1.20006 5.10078 1.50006L16.5008 8.50006Z" fill="white"/>
<path d="M24 1H26.2C26.8 1 27.2 1.4 27.2 2V16C27.2 16.6 26.8 17 26.2 17H24C23.4 17 23 16.6 23 16V2C23 1.5 23.4 1 24 1ZM33.8 1H36C36.6 1 37 1.4 37 2V16C37 16.6 36.6 17 36 17H33.8C33.2 17 32.8 16.6 32.8 16V2C32.8 1.5 33.2 1 33.8 1Z" fill="white"/>
<path d="M81 1.3999C81 0.799902 81.4 0.399902 82 0.399902H87.4C88 0.399902 88.1 0.699902 87.7 1.0999L81.7 7.0999C81.3 7.4999 81 7.3999 81 6.7999V1.3999ZM81 17.1999C81 17.7999 81.4 18.1999 82 18.1999H87.4C88 18.1999 88.1 17.8999 87.7 17.4999L81.7 11.4999C81.3 11.0999 81 11.1999 81 11.7999V17.1999V17.1999ZM98.8 1.3999C98.8 0.799902 98.4 0.399902 97.8 0.399902H92.4C91.8 0.399902 91.7 0.699902 92.1 1.0999L98.1 7.0999C98.5 7.4999 98.8 7.3999 98.8 6.7999V1.3999ZM98.8 17.1999C98.8 17.7999 98.4 18.1999 97.8 18.1999H92.4C91.8 18.1999 91.7 17.8999 92.1 17.4999L98.1 11.4999C98.5 11.0999 98.8 11.1999 98.8 11.7999V17.1999V17.1999Z" fill="white"/>
<path d="M112.701 5.00011C112.701 5.60011 113.101 6.00011 113.701 6.00011H117.801C118.401 6.00011 118.501 5.70011 118.101 5.30011L113.401 0.600107C113.001 0.200107 112.701 0.300107 112.701 0.900107V5.00011ZM105.601 6.00011C106.201 6.00011 106.601 5.60011 106.601 5.00011V0.900107C106.601 0.300107 106.301 0.200107 105.901 0.600107L101.201 5.30011C100.801 5.70011 100.901 6.00011 101.501 6.00011H105.601V6.00011ZM106.601 13.1001C106.601 12.5001 106.201 12.1001 105.601 12.1001H101.501C100.901 12.1001 100.801 12.4001 101.201 12.8001L105.901 17.5001C106.301 17.9001 106.601 17.8001 106.601 17.2001V13.1001V13.1001ZM113.701 12.1001C113.101 12.1001 112.701 12.5001 112.701 13.1001V17.2001C112.701 17.7001 113.001 17.9001 113.401 17.5001L118.101 12.8001C118.501 12.4001 118.401 12.1001 117.801 12.1001H113.701V12.1001Z" fill="white"/>
<path d="M67 5.79994C66.5 6.19994 65.8 6.39994 65.2 6.39994H62C61.4 6.39994 61 6.79994 61 7.39994V13.0999C61 13.6999 61.4 14.0999 62 14.0999H66.2C66.5 14.2999 66.7 14.4999 67 14.6999L70.5 17.2999C70.9 17.5999 71.3 17.3999 71.3 16.8999V3.49994C71.3 2.99994 70.9 2.79994 70.5 3.09994L67 5.79994Z" fill="white"/>
<path d="M73.9004 2.50006C73.9004 2.50006 77.8004 1.70006 77.8004 10.2001C77.8004 18.7001 73.9004 18.0001 73.9004 18.0001" stroke="white" stroke-width="1.5" stroke-linecap="round"/>
<path d="M72.5996 6.39989C72.5996 6.39989 75.1996 5.99989 75.1996 10.1999C75.1996 14.3999 72.5996 14.0999 72.5996 14.0999" stroke="white" stroke-width="1.5" stroke-linecap="round"/>
<path d="M47 5.79994C46.5 6.19994 45.8 6.39994 45.2 6.39994H42C41.4 6.39994 41 6.79994 41 7.39994V13.0999C41 13.6999 41.4 14.0999 42 14.0999H46.2C46.5 14.2999 46.7 14.4999 47 14.6999L50.5 17.2999C50.9 17.5999 51.3 17.3999 51.3 16.8999V3.49994C51.3 2.99994 50.9 2.79994 50.5 3.09994L47 5.79994Z" fill="white"/>
<path d="M52.8008 7L58.2008 12.4M52.8008 12.4L58.2008 7" stroke="white" stroke-width="2" stroke-linecap="round"/>
<path d="M128.701 8.59992C122.501 4.39992 122.201 16.3999 128.701 12.4999M135.201 8.59992C129.001 4.39992 128.701 16.3999 135.201 12.4999" stroke="white"/>
<path d="M122.201 3.4H137.901V16.5H122.201V3.4ZM120.801 2V17.7H139.101V2H120.801Z" fill="white"/>
<path d="M143.199 3H157.199C158.299 3 159.199 3.9 159.199 5V15C159.199 16.1 158.299 17 157.199 17H143.199C142.099 17 141.199 16.1 141.199 15V5C141.199 3.9 142.099 3 143.199 3Z" fill="white"/>
<path d="M146.4 13.8C145.6 13.8 144.8 13.4 144.3 12.8C143.2 11.4 143.3 9.39999 144.4 7.99999C144.9 7.39999 146.4 6.29999 149 8.19999L148.4 8.99999C147 7.99999 145.8 7.89999 145.1 8.69999C144.3 9.69999 144.3 11.1 145 12.2C145.7 13.1 146.9 13 148.4 12.1L148.9 13C148.2 13.5 147.3 13.7 146.4 13.8ZM153.9 13.8C153.1 13.8 152.3 13.4 151.8 12.8C150.7 11.4 150.8 9.39999 151.9 7.99999C152.4 7.39999 153.9 6.29999 156.5 8.19999L156 8.99999C154.6 7.99999 153.4 7.89999 152.7 8.69999C151.9 9.69999 151.9 11.1 152.6 12.2C153.3 13.1 154.5 13 156 12.1L156.5 13C155.7 13.5 154.8 13.7 153.9 13.8Z" fill="#231F20"/>
<circle cx="40" cy="79" r="40" fill="white"/>
<path d="M65.6855 79.4211L27.7908 101.3L27.7908 57.5426L65.6855 79.4211Z" fill="#343434"/>
<circle cx="120" cy="79" r="40" fill="#C6C6C6"/>
<path d="M145.686 79.4211L107.791 101.3L107.791 57.5426L145.686 79.4211Z" fill="white"/>
<path d="M201.901 55.2C206.374 55.2 210.001 51.5735 210.001 47.1C210.001 42.6265 206.374 39 201.901 39C197.427 39 193.801 42.6265 193.801 47.1C193.801 51.5735 197.427 55.2 201.901 55.2Z" fill="white"/>
<path opacity="0.4" d="M233.9 84C236.662 84 238.9 81.7614 238.9 79C238.9 76.2386 236.662 74 233.9 74C231.139 74 228.9 76.2386 228.9 79C228.9 81.7614 231.139 84 233.9 84Z" fill="white"/>
<path opacity="0.6" d="M201.9 116.9C205.214 116.9 207.9 114.214 207.9 110.9C207.9 107.586 205.214 104.9 201.9 104.9C198.587 104.9 195.9 107.586 195.9 110.9C195.9 114.214 198.587 116.9 201.9 116.9Z" fill="white"/>
<path opacity="0.8" d="M170.1 86C173.966 86 177.1 82.866 177.1 79C177.1 75.134 173.966 72 170.1 72C166.234 72 163.1 75.134 163.1 79C163.1 82.866 166.234 86 170.1 86Z" fill="white"/>
<path opacity="0.9" d="M178.199 63.8C182.341 63.8 185.699 60.4422 185.699 56.3C185.699 52.1579 182.341 48.8 178.199 48.8C174.057 48.8 170.699 52.1579 170.699 56.3C170.699 60.4422 174.057 63.8 178.199 63.8Z" fill="white"/>
<path opacity="0.3" d="M226.301 60.6001C228.786 60.6001 230.801 58.5854 230.801 56.1001C230.801 53.6148 228.786 51.6001 226.301 51.6001C223.815 51.6001 221.801 53.6148 221.801 56.1001C221.801 58.5854 223.815 60.6001 226.301 60.6001Z" fill="white"/>
<path opacity="0.5" d="M225.801 108.3C228.838 108.3 231.301 105.838 231.301 102.8C231.301 99.7625 228.838 97.3 225.801 97.3C222.763 97.3 220.301 99.7625 220.301 102.8C220.301 105.838 222.763 108.3 225.801 108.3Z" fill="white"/>
<path opacity="0.7" d="M178.199 109.3C181.789 109.3 184.699 106.39 184.699 102.8C184.699 99.2102 181.789 96.3 178.199 96.3C174.609 96.3 171.699 99.2102 171.699 102.8C171.699 106.39 174.609 109.3 178.199 109.3Z" fill="white"/>
<path d="M177.999 9.39994C177.999 9.79994 177.599 10.0999 177.099 10.0999C176.999 10.0999 176.899 10.0999 176.899 9.99994L171.999 8.19994C171.499 7.99994 171.399 7.59994 171.899 7.39994L178.099 3.79994C178.599 3.49994 178.899 3.69994 178.799 4.29994L177.999 9.39994V9.39994Z" fill="white"/>
<path d="M169.401 15.9C168.401 15.9 167.401 15.7 166.501 15.2C164.501 14.2 163.301 12.2 163.301 10C163.401 6.60004 166.201 4.00004 169.601 4.00004C172.101 4.10004 174.401 5.70004 175.201 8.10004L175.301 8.00004L177.401 9.10004C176.801 4.70004 172.701 1.60004 168.301 2.20004C164.401 2.80004 161.401 6.10004 161.301 10.1C161.301 13 163.001 15.7 165.601 17.1C166.801 17.7 168.101 18 169.401 18.1C172.001 18.1 174.401 16.9 176.001 14.8L174.201 13.9C173.001 15.1 171.201 15.9 169.401 15.9Z" fill="white"/>
<path d="M183.4 3.19995C184.2 3.19995 184.9 3.89995 184.9 4.69995C184.9 5.49995 184.2 6.19995 183.4 6.19995C182.6 6.19995 181.9 5.49995 181.9 4.69995C181.9 3.79995 182.6 3.19995 183.4 3.19995ZM188.5 3.19995H197C197.9 3.19995 198.5 3.89995 198.5 4.69995C198.5 5.49995 197.8 6.19995 197 6.19995H188.5C187.6 6.19995 187 5.49995 187 4.69995C186.9 3.79995 187.6 3.19995 188.5 3.19995ZM183.4 8.19995C184.2 8.19995 184.9 8.89995 184.9 9.69995C184.9 10.5 184.2 11.2 183.4 11.2C182.6 11.2 181.9 10.5 181.9 9.69995C181.9 8.79995 182.6 8.19995 183.4 8.19995ZM188.5 8.19995H197C197.9 8.19995 198.5 8.89995 198.5 9.69995C198.5 10.5 197.8 11.2 197 11.2H188.5C187.6 11.2 187 10.5 187 9.69995C186.9 8.79995 187.6 8.19995 188.5 8.19995ZM183.4 13.2C184.2 13.2 184.9 13.9 184.9 14.7C184.9 15.5 184.2 16.2 183.4 16.2C182.6 16.2 181.9 15.5 181.9 14.7C181.9 13.8 182.6 13.2 183.4 13.2ZM188.5 13.2H197C197.9 13.2 198.5 13.9 198.5 14.7C198.5 15.5 197.8 16.2 197 16.2H188.5C187.6 16.2 187 15.5 187 14.7C186.9 13.8 187.6 13.2 188.5 13.2Z" fill="white"/>
</svg>
