<svg width="1366" height="372" viewBox="0 0 1366 372" fill="none" xmlns="http://www.w3.org/2000/svg">
<rect width="759" height="228" fill="#E30613"/>
<path fill-rule="evenodd" clip-rule="evenodd" d="M664.019 144C664.736 129.749 671.667 124.263 682.354 124.263C693.042 124.263 699.973 129.749 700.69 144H664.019ZM628.57 144C630.2 110.832 649.065 92 682.354 92C715.644 92 734.509 110.832 736.139 144H700.69C700.731 144.813 700.752 145.654 700.752 146.524V268.476C700.752 284.608 693.651 290.737 682.354 290.737C671.058 290.737 663.957 284.608 663.957 268.476V146.524C663.957 145.654 663.978 144.813 664.019 144H628.57ZM607 247.183V144H628.57C628.493 145.562 628.454 147.157 628.454 148.782V266.218C628.454 302.352 647.497 323 682.354 323C717.212 323 736.255 302.352 736.255 266.218V148.782C736.255 147.157 736.216 145.562 736.139 144H794.582L750.935 247.183V279.446H819.359V320.419H854.217V279.446H871V247.183H854.217V144H1366V372H607V279.446H615.065V247.183H607ZM607 247.183V279.446H598.282V320.419H563.424V279.446H495V247.183L559.551 94.581H598.282V247.183H607ZM854.217 144V94.581H815.486L794.582 144H854.217ZM527.598 247.183L563.424 162.332V247.183H527.598ZM819.359 162.332L783.533 247.183H819.359V162.332Z" fill="#343434"/>
</svg>
