<svg width="114" height="112" viewBox="0 0 114 112" fill="none" xmlns="http://www.w3.org/2000/svg">
<g clip-path="url(#clip0_318_4)">
<path fill-rule="evenodd" clip-rule="evenodd" d="M54.4044 2.59549C54.3441 3.83994 54.2695 5.65713 54.2386 6.63378L54.1823 8.4096L55.846 8.52688C59.1398 8.75904 59.7993 8.70234 60.4432 8.13108C61.4417 7.24511 61.5732 5.21295 60.7022 4.1301C60.2157 3.52542 59.2965 3.33296 56.755 3.3036L55.4064 3.28808V1.81055C55.4064 0.374194 55.394 0.333008 54.9602 0.333008C54.5193 0.333008 54.5124 0.360896 54.4044 2.59549ZM62.435 3.55293C62.3619 9.16388 62.3335 8.72967 62.7775 8.79246C63.1555 8.84602 63.1782 8.75553 63.2857 6.76085C63.3476 5.6128 63.4207 3.75905 63.4481 2.64166L63.4979 0.610046L62.9864 0.551685L62.4748 0.493137L62.435 3.55293ZM46.5709 1.35473C45.4455 1.58799 44.4725 1.7858 44.4087 1.79466C44.2967 1.80999 44.4807 2.92424 45.3644 7.58218C45.6788 9.23887 45.8441 9.75231 46.0634 9.75231C46.7145 9.75231 50.521 8.98085 51.0725 8.73724C51.989 8.33221 52.305 7.71257 52.2052 6.5165C52.1453 5.79879 51.9976 5.37178 51.7012 5.05873C51.3605 4.6984 51.3199 4.54584 51.4842 4.2411C51.9615 3.35568 51.5777 2.00392 50.6417 1.27272C50.0165 0.78458 49.2494 0.799909 46.5709 1.35473ZM66.2911 1.97382C66.1662 2.87474 66.1899 2.93938 67.1419 4.29299C67.6804 5.05891 68.0851 5.71679 68.0416 5.7552C67.9979 5.79362 67.3139 6.17575 66.5215 6.60442C65.7291 7.03309 65.0416 7.44661 64.9936 7.52363C64.9458 7.60065 64.851 8.00882 64.7831 8.43084C64.6651 9.16314 64.6813 9.19823 65.1359 9.19823C65.5174 9.19823 65.624 9.09702 65.6713 8.69033C65.7204 8.26554 65.9711 8.05444 67.2066 7.39749C68.0187 6.96586 68.706 6.61254 68.7339 6.61254C68.7618 6.61254 69.2362 7.21889 69.7883 7.96024C70.6093 9.0623 70.7769 9.41063 70.7085 9.8731C70.6465 10.2929 70.7094 10.4706 70.9527 10.5633C71.3359 10.7094 71.5157 10.4772 71.6757 9.6306C71.7754 9.10293 71.6545 8.83033 70.7577 7.55965L69.7248 6.09614L70.5176 5.63903C70.9536 5.38748 71.6629 5.00498 72.0939 4.78889C72.73 4.46975 72.9151 4.25624 73.0786 3.65304C73.3052 2.81823 73.2151 2.54932 72.7092 2.54932C72.4804 2.54932 72.3238 2.72644 72.2473 3.072C72.1538 3.49513 71.8476 3.74501 70.6398 4.38386C69.8191 4.81807 69.1184 5.14387 69.0825 5.10804C69.0466 5.07203 68.5913 4.46236 68.0708 3.75332C67.2533 2.63945 67.14 2.3818 67.2384 1.86023C67.3072 1.49602 67.2765 1.25647 67.161 1.25647C67.0557 1.25647 66.8457 1.20937 66.6945 1.15175C66.4832 1.07122 66.3896 1.26146 66.2911 1.97382ZM50.3986 2.28945C50.7018 2.65237 50.7212 3.76607 50.4291 4.05604C50.3106 4.17368 49.2517 4.45165 48.0757 4.67383C45.6596 5.13057 45.8101 5.19706 45.6194 3.58765L45.5056 2.62596L47.1544 2.33267C49.3627 1.93965 50.0978 1.92986 50.3986 2.28945ZM38.5724 3.39705C36.9355 3.94596 35.4926 4.43373 35.3659 4.4812C35.2024 4.54252 35.5199 5.67874 36.4628 8.40664C37.1925 10.518 37.8034 12.2645 37.8201 12.2874C37.865 12.3493 44.2249 10.2041 44.3421 10.0875C44.3971 10.0329 44.3594 9.77226 44.2584 9.50833L44.0746 9.02869L41.4524 9.94458C40.0101 10.4482 38.7169 10.8605 38.5787 10.8605C38.4379 10.8605 38.1635 10.3782 37.9541 9.76228L37.5806 8.6641L39.0065 8.18446C42.1801 7.11675 42.2963 7.06282 42.2305 6.68882C42.1964 6.49452 42.1066 6.27123 42.0311 6.19274C41.9554 6.11425 40.917 6.38445 39.7234 6.79299C38.5298 7.20171 37.4747 7.536 37.3787 7.536C37.2826 7.536 37.0266 7.06541 36.8099 6.49028C36.5104 5.69555 36.4705 5.41112 36.6429 5.30529C36.7677 5.22865 38.0279 4.77578 39.4435 4.29891C40.8588 3.82203 42.0484 3.37877 42.0865 3.31376C42.1897 3.1383 41.8627 2.36185 41.694 2.38198C41.614 2.3914 40.2093 2.84833 38.5724 3.39705ZM60.1032 4.96324C60.6969 5.68798 60.3828 7.26377 59.6064 7.45585C59.3936 7.5083 58.3407 7.52714 57.2665 7.49759L55.3134 7.44366L55.2589 5.89132L55.2044 4.33898L57.491 4.45257C59.5299 4.55359 59.813 4.609 60.1032 4.96324ZM50.9739 5.81006C51.4691 6.25498 51.4245 7.27448 50.8956 7.60176C50.5258 7.83059 47.5245 8.45947 46.8025 8.45947C46.6192 8.45947 46.4594 8.11464 46.3175 7.41281C46.2011 6.83731 46.1533 6.31777 46.2111 6.25849C46.3583 6.10796 49.2262 5.55352 49.9974 5.52655C50.3566 5.51399 50.782 5.63755 50.9739 5.81006ZM29.0858 7.61339C27.2735 8.66817 26.8505 9.25253 27.0692 10.3987C27.2216 11.1975 29.4939 14.8782 30.0635 15.2487C30.8975 15.7914 31.7383 15.6192 33.5579 14.5329C34.9885 13.6787 35.256 13.44 35.4533 12.8402C35.7523 11.9326 35.5181 11.2431 34.12 8.91713C32.5054 6.2306 31.783 6.04351 29.0858 7.61339ZM32.203 7.76687C32.3708 7.89394 32.976 8.78729 33.5478 9.75231C35.056 12.2977 34.971 12.5408 32.0162 14.1238C31.1066 14.6114 31.0075 14.628 30.5523 14.3696C30.2839 14.2172 29.8849 13.7601 29.6658 13.3538C29.4467 12.9475 28.9907 12.138 28.6526 11.5549C27.7262 9.95824 27.8276 9.67419 29.7368 8.51654C31.4221 7.49463 31.7225 7.40321 32.203 7.76687ZM82.4677 10.7929C81.2817 12.584 80.3557 14.165 80.4104 14.3061C80.4649 14.4472 80.6327 14.6097 80.7834 14.667C80.9339 14.7244 82.7564 14.1469 84.8332 13.3837C86.9102 12.6206 88.639 12.0781 88.6751 12.1782C88.7114 12.2782 87.9657 13.5206 87.0181 14.939C85.3784 17.3936 85.3124 17.5308 85.6502 17.7783C85.8455 17.9214 86.0626 17.9818 86.1325 17.9126C86.3635 17.6837 90.5784 11.1837 90.5233 11.1412C89.948 10.6964 89.6435 10.7544 86.0356 11.9946C83.9912 12.6974 82.2512 13.2493 82.169 13.2208C82.087 13.1924 82.7748 12.0157 83.6978 10.6059C85.2884 8.1767 85.5397 7.536 84.902 7.536C84.7478 7.536 83.666 8.98325 82.4677 10.7929ZM21.0873 13.0238C19.8596 13.9829 18.8552 14.8406 18.8552 14.9298C18.8552 15.171 23.6457 21.2032 23.8373 21.2032C24.1063 21.2032 28.0467 18.0688 28.2486 17.6942C28.7391 16.7845 28.3324 15.5441 27.2287 14.5816C26.7039 14.1241 26.3946 14.001 25.7776 14.0035C25.0845 14.0065 24.7887 14.1679 23.2264 15.3963L21.4593 16.7859L20.8548 16.1011C20.5224 15.7243 20.2503 15.3488 20.2503 15.2665C20.2503 15.1841 21.0838 14.4708 22.1026 13.6813C23.1212 12.8917 23.9582 12.1546 23.9627 12.0434C23.9669 11.9322 23.8239 11.7148 23.645 11.5604C23.3462 11.303 23.1357 11.4234 21.0873 13.0238ZM92.3297 13.9864C92.1251 14.0778 91.2203 14.8938 90.3191 15.7995C88.538 17.5895 88.0728 18.4463 88.3459 19.4344C88.5194 20.0616 90.9121 22.4187 91.6714 22.7101C92.1907 22.9096 92.871 22.786 93.5079 22.3768C93.9203 22.1117 93.926 22.0803 93.6239 21.7488C93.3855 21.4871 93.2218 21.4446 92.9696 21.5785C92.3354 21.9156 92.0088 21.7553 90.6357 20.4332C89.6602 19.4941 89.2605 18.9771 89.2605 18.6548C89.2605 18.3329 89.7311 17.7231 90.8753 16.5621C92.9266 14.4808 93.0462 14.4688 94.857 16.165C96.1658 17.3908 96.1809 17.4157 96.0756 18.1789C95.9969 18.7483 96.0445 19.0139 96.256 19.1882C96.5929 19.4658 96.7811 19.2595 97.0508 18.3172C97.3291 17.3457 97.0955 16.8764 95.5964 15.3969C94.3803 14.1964 94.0395 13.9607 93.4277 13.8964C93.0283 13.8543 92.5343 13.8949 92.3297 13.9864ZM26.9002 15.5954C27.6624 16.4278 27.4753 17.0029 26.0631 18.1665C25.3726 18.7354 24.5942 19.3544 24.3332 19.5419L23.8591 19.8829L22.964 18.785L22.0691 17.6872L22.5903 17.275C25.7932 14.7429 26.0339 14.6492 26.9002 15.5954ZM55.4994 16.5152C49.9654 16.9684 46.229 17.9755 41.827 20.2007C38.2549 22.0063 35.7867 23.8606 32.7448 27.024C28.5661 31.3698 25.6859 36.9397 24.4279 43.1084C24.1764 44.3424 23.9705 45.4038 23.9705 45.4673C23.9705 45.5307 22.7478 45.5826 21.2534 45.5826C19.155 45.5826 18.5572 45.6352 18.6277 45.8134C18.6781 45.9405 19.3076 47.1194 20.0267 48.4335L21.334 50.8227L19.9539 53.5587L18.5737 56.2947L19.0866 56.3021C19.3686 56.3064 20.6842 56.3271 22.0101 56.3483L24.4212 56.3871L24.5944 57.0335C25.1619 59.151 26.3079 62.3539 27.0092 63.7825C29.7164 69.2978 33.8596 74.0111 38.8514 77.2543C42.0095 79.3063 46.601 81.1584 50.5701 81.9813C53.5582 82.601 59.3419 82.6917 62.4064 82.1671C73.175 80.3239 81.9607 73.9016 86.8089 64.3288C87.7707 62.4295 88.8414 59.564 89.2586 57.7723C89.3888 57.2136 89.5814 56.649 89.6864 56.5175C89.8289 56.3392 90.5609 56.2851 92.5577 56.3051C94.0315 56.3198 95.2796 56.2899 95.3312 56.239C95.3825 56.1878 94.8328 55.0131 94.1096 53.6285C93.3864 52.2439 92.7947 51.0074 92.7947 50.8805C92.7947 50.7538 93.3799 49.5723 94.0951 48.2549C94.8101 46.9375 95.3961 45.7996 95.3972 45.7261C95.3981 45.6528 94.2078 45.5697 92.7523 45.5414L90.1057 45.4902L89.9582 44.5668C88.2888 34.1123 81.8104 25.0963 72.5338 20.3174C68.956 18.4744 65.7148 17.4185 62.0027 16.8866C60.0254 16.6033 56.7247 16.4147 55.4994 16.5152ZM62.3422 19.5591C70.4013 20.8796 77.5883 25.4715 82.4419 32.4007C84.5685 35.4371 87.5131 42.5322 86.7493 42.7802C86.4975 42.8621 86.3996 42.6428 85.732 40.4982C83.2503 32.5258 77.1402 25.7357 69.3573 22.301C65.7726 20.7191 62.3699 19.954 58.1966 19.7909C49.2652 19.4422 41.0437 22.8662 34.8388 29.5186C32.3544 32.1822 30.6094 35.0047 29.1323 38.749C28.6714 39.9171 28.1846 41.3094 28.0503 41.8426C27.8635 42.5848 27.724 42.8122 27.4547 42.8122C27.1557 42.8122 27.1223 42.7223 27.2309 42.212C27.8537 39.2873 30.1756 34.3542 32.2513 31.546C33.9794 29.2078 36.7136 26.5185 39.0696 24.8396C41.1159 23.3813 45.2286 21.2769 47.3769 20.5889C52.1533 19.0593 57.1804 18.7134 62.3422 19.5591ZM96.6829 21.9606C95.0047 23.2904 93.5687 24.4374 93.4915 24.5092C93.4145 24.581 93.4673 24.7975 93.6093 24.9901C93.9004 25.3854 93.7787 25.4443 95.6481 24.0022L96.6885 23.1997L97.1539 23.7252C97.7244 24.3694 97.7337 24.7153 97.2443 27.0978C96.8814 28.8641 96.8765 29.0094 97.1662 29.4482C97.3358 29.7053 97.5307 29.8616 97.5994 29.7951C97.6678 29.7288 97.9351 28.5789 98.1933 27.2397L98.6626 24.8047L101.309 24.8729C102.93 24.9146 103.955 24.8719 103.955 24.763C103.955 24.6651 103.783 24.4302 103.573 24.2412C103.254 23.9551 102.802 23.8846 100.881 23.821L98.5713 23.7446L98.101 23.1327C97.8425 22.7962 97.631 22.4859 97.631 22.4432C97.631 22.4006 98.2136 21.9172 98.9258 21.3689C100.259 20.3424 100.415 20.1039 99.9846 19.7491C99.7886 19.5875 99.0704 20.0685 96.6829 21.9606ZM61.64 21.2978C66.3297 22.0288 71.332 24.2002 74.9783 27.0879C79.1748 30.4112 82.7864 35.5065 84.4073 40.39C85.3193 43.1378 85.5855 42.9118 81.4945 42.8626C79.5764 42.8395 77.7244 42.8187 77.3796 42.8164C76.82 42.8126 76.7795 42.7795 77.0047 42.51C77.788 41.5727 79.9692 40.7806 81.7661 40.7806C82.9344 40.7806 82.9966 40.5928 82.0981 39.7759C80.5816 38.3964 76.3537 36.6269 73.4495 36.1559C72.2306 35.9583 71.9469 35.8336 71.2023 35.1689C69.8072 33.9237 68.3939 33.3135 66.7985 33.2679L65.4395 33.2289L64.3132 32.2168C62.5758 30.6558 60.502 29.8219 57.8246 29.6078C55.6705 29.4357 54.8341 30.1015 55.8638 31.1687L56.3556 31.6784L53.7883 31.7754C46.6477 32.0454 41.8309 35.0472 38.676 41.1936L37.8283 42.8451L33.7361 42.8312C31.4853 42.8235 29.5326 42.8161 29.3966 42.8148C29.0964 42.8116 29.2041 42.2208 29.8683 40.2265C32.2102 33.1962 37.7867 27.009 44.6868 23.7854C50.2905 21.1674 55.7051 20.3728 61.64 21.2978ZM9.78804 25.4772C8.9097 26.2656 7.60148 28.599 7.60148 29.3775C7.60148 30.3767 8.0001 30.8659 9.7181 31.9745C13.1031 34.159 13.5285 34.3825 13.8303 34.1337C14.2445 33.7926 14.2015 33.7224 13.1682 33.0507C12.5803 32.6684 12.2613 32.342 12.3219 32.185C12.514 31.688 14.8479 28.2215 14.9899 28.2223C15.0697 28.2228 15.5073 28.4685 15.9627 28.7684C16.5946 29.1845 16.8496 29.2648 17.0403 29.1077C17.1775 28.9945 17.2655 28.7942 17.2356 28.6626C17.2056 28.5309 16.051 27.6992 14.6699 26.8143C12.538 25.4484 12.0165 25.1931 11.2161 25.1235C10.419 25.0542 10.1984 25.1089 9.78804 25.4772ZM12.7936 26.748L13.9512 27.4909L13.5274 28.1794C13.0258 28.9945 11.3208 31.6084 11.2356 31.693C11.1411 31.7868 9.02056 30.4227 8.76405 30.103C8.63626 29.9436 8.53172 29.6835 8.53209 29.5253C8.53265 29.2148 10.3187 26.3705 10.6537 26.1465C11.0786 25.8624 11.6748 26.03 12.7936 26.748ZM104.42 27.863C103.807 28.1619 103.074 28.6568 102.793 28.9632C102.034 29.789 102.114 30.4921 103.214 32.6767C103.726 33.6954 104.105 34.5956 104.054 34.6772C104.003 34.7587 103.67 34.9626 103.315 35.1303C102.203 35.6541 101.789 35.4029 100.96 33.7012C100.151 32.038 100.11 31.8058 100.526 31.2157C100.798 30.8309 100.75 30.0607 100.455 30.0744C99.9573 30.0974 99.1191 31.2804 99.1191 31.9601C99.1191 32.5352 100.594 35.5841 101.056 35.9651C101.218 36.099 101.707 36.2473 102.142 36.2944C102.839 36.3699 103.273 36.2128 105.815 34.9615C107.401 34.1812 108.726 33.5161 108.76 33.4836C108.794 33.4511 108.729 33.2516 108.615 33.0403C108.411 32.6619 108.385 32.6674 106.93 33.3938C106.117 33.7996 105.382 34.1317 105.297 34.1317C105.211 34.1317 104.712 33.2533 104.187 32.1797C103.475 30.7234 103.27 30.1255 103.378 29.8248C103.493 29.5027 105.05 28.4775 105.887 28.1728C106.071 28.1053 105.861 27.292 105.664 27.3088C105.594 27.3149 105.034 27.5642 104.42 27.863ZM59.4814 31.0916C61.1791 31.4889 62.6681 32.3422 63.8984 33.623L64.9646 34.7328L65.8227 34.5361C66.8883 34.2918 68.0105 34.5151 69.1713 35.2023L70.0083 35.6979L68.0829 35.8451C66.2025 35.9889 66.1248 35.9791 64.7457 35.4264C61.2907 34.0412 58.8296 33.7311 55.8714 34.3082C54.4496 34.5858 52.7755 34.7399 50.3841 34.8137C48.4914 34.8721 46.7963 34.9949 46.6174 35.0863C46.2031 35.2982 46.175 36.7114 46.5634 37.8043C47.0897 39.2857 48.5238 40.9729 50.184 42.0642C50.6181 42.3495 51.2139 43.0021 51.5521 43.5626C52.0526 44.3921 52.7639 45.0176 55.8714 47.3608C61.0387 51.2569 61.7674 51.9471 62.6689 53.796C63.0731 54.6249 63.4988 55.7745 63.6155 56.3505L63.8271 57.3977L65.6791 58.5277C67.6873 59.7529 69.1713 61.0312 69.1713 61.5356C69.1713 61.9783 68.3945 62.6465 67.5533 62.927C67.1644 63.0569 65.8913 63.2078 64.7241 63.2624C62.6986 63.3572 62.609 63.3459 62.7509 63.0142C62.8325 62.823 62.935 62.4173 62.9788 62.1125C63.0515 61.603 63.0113 61.6303 62.4767 62.4522C62.0054 63.1771 61.6677 63.4484 60.688 63.8895C58.8281 64.7267 56.9676 65.0432 54.6624 64.9145C52.7068 64.8053 50.1482 64.2352 48.3748 63.5134C47.7652 63.2654 46.8538 63.1274 45.3618 63.0571C44.1853 63.0015 42.6786 62.8258 42.0136 62.6666C40.2269 62.2389 37.9539 61.0581 36.9827 60.0534C36.4965 59.5503 36.3002 59.2474 36.5076 59.3202C37.0737 59.5187 40.4729 59.4755 40.8696 59.2646C41.1544 59.1133 41.4634 59.189 42.3201 59.6205C42.9189 59.9219 43.4903 60.1696 43.59 60.1709C43.6897 60.1722 43.178 59.5708 42.4528 58.8342C39.4552 55.7901 38.2266 52.7431 38.2266 48.353C38.2266 44.5871 39.1838 41.7798 41.4472 38.9073C44.8465 34.5934 49.2442 32.8388 56.6572 32.8388C58.1177 32.8388 59.3126 32.783 59.3126 32.7149C59.3126 32.6469 58.8731 32.1935 58.3361 31.7076C57.4403 30.8972 57.398 30.8235 57.8246 30.8183C58.0803 30.8151 58.8259 30.9382 59.4814 31.0916ZM5.00848 33.6441C4.81521 34.092 4.35279 35.2646 3.98095 36.2503C3.39297 37.8089 3.33121 38.1208 3.50551 38.6455C3.8221 39.598 4.34405 39.9358 7.39705 41.1631C10.1234 42.2592 10.2739 42.2984 10.5135 41.9731C10.6519 41.7853 10.7019 41.5731 10.6249 41.5014C10.5477 41.43 9.20006 40.851 7.63013 40.2147C5.49118 39.3479 4.72723 38.9525 4.58251 38.6372C4.42533 38.2946 4.53787 37.8464 5.18891 36.2203C5.62864 35.1224 6.01424 34.1917 6.04586 34.1522C6.07749 34.1125 7.54754 34.6776 9.31278 35.4079C12.2828 36.6365 12.5401 36.7116 12.759 36.4141C12.8892 36.2373 12.9958 36.0388 12.9958 35.973C12.9958 35.9073 11.552 35.2849 9.78711 34.5901C8.02224 33.8953 6.30424 33.2149 5.96923 33.0784L5.35986 32.83L5.00848 33.6441ZM61.5714 35.7741C65.2304 36.6998 66.7488 37.4277 69.2373 39.449C71.6087 41.3751 73.3958 43.8143 74.3003 46.3603C74.5176 46.9715 74.5133 47.0601 74.2665 47.0601C73.9002 47.0601 73.3085 46.4091 71.9162 44.4744C69.6463 41.3203 66.7449 38.918 63.6702 37.6471C61.9083 36.9187 59.5254 36.452 58.388 36.6125C54.8651 37.1093 52.9624 37.3185 50.9981 37.4253L48.729 37.5485L49.1542 38.8007L49.5792 40.0531L49.0281 39.5395C48.3703 38.9266 47.5982 37.3806 47.5958 36.6712L47.5939 36.1633H49.4217C51.6166 36.1633 54.7435 35.868 56.1505 35.5279C57.8199 35.1244 59.2617 35.19 61.5714 35.7741ZM106.071 36.9877C102.344 38.3493 102.107 38.7671 103.258 41.9419C103.946 43.8393 104.425 44.2879 105.763 44.289C106.497 44.2897 106.538 44.263 106.394 43.8777C106.295 43.6132 106.023 43.4213 105.632 43.3421C104.899 43.1932 104.871 43.1518 104.222 41.2549C103.548 39.2833 103.64 38.9154 104.93 38.4108C108.893 36.861 109.039 36.8845 109.885 39.2061C110.565 41.0717 110.591 41.3893 110.101 41.8426C109.859 42.0664 109.772 42.3176 109.844 42.5885C109.984 43.1212 110.125 43.104 110.807 42.4709C111.693 41.6497 111.726 41.1472 111.031 39.1298C110.003 36.1478 109.254 35.8244 106.071 36.9877ZM72.9845 37.3653C74.9919 37.6635 77.6876 38.4367 78.2293 38.8694C78.546 39.1224 78.5429 39.1315 78.1723 39.0314C76.4266 38.5593 74.7949 38.3441 72.2417 38.2497C69.6452 38.1537 69.2018 38.0918 68.754 37.7631C68.472 37.556 68.2412 37.3193 68.2412 37.2367C68.2412 36.9931 70.9785 37.0673 72.9845 37.3653ZM60.0567 39.4696C60.0567 39.5612 59.8056 39.7232 59.4987 39.8294C59.0029 40.001 58.9406 39.9823 58.9406 39.6628C58.9406 39.3862 59.0695 39.303 59.4987 39.303C59.8056 39.303 60.0567 39.378 60.0567 39.4696ZM54.2952 42.2674C56.6737 42.5601 59.8279 43.6042 59.3043 43.9255C59.156 44.0164 58.9546 44.0084 58.8309 43.9067C58.7126 43.8092 58.4765 43.7824 58.3063 43.8472C58.1272 43.9156 57.843 43.8269 57.6317 43.637C57.4222 43.449 57.2665 43.4001 57.2665 43.5223C57.2665 43.831 56.6088 43.7844 56.3346 43.4564C56.1553 43.242 56.0413 43.2263 55.8433 43.3895C55.6438 43.5539 55.4968 43.5231 55.1932 43.2532C54.8288 42.9293 54.7868 42.9265 54.6008 43.2159C54.4127 43.5079 54.3672 43.5079 53.8677 43.2159C53.3623 42.9204 53.3253 42.9219 53.1413 43.2475C52.9611 43.5663 52.9226 43.5532 52.5971 43.0628C52.1892 42.4485 52.1454 42.0734 52.4816 42.0734C52.6121 42.0734 53.4284 42.1608 54.2952 42.2674ZM2.23728 42.9077C1.77821 43.2911 1.61321 43.6649 1.29309 45.0455C0.822479 47.0749 0.810946 47.5811 1.22203 48.1733C1.74584 48.9281 2.01686 49.0494 4.46421 49.6273C8.01647 50.4658 8.57339 50.187 9.26014 47.2254C9.754 45.0957 9.74712 44.8048 9.1863 44.1431C8.63701 43.4948 8.21569 43.317 6.05219 42.8201C3.80555 42.3039 2.93594 42.3239 2.23728 42.9077ZM47.5519 42.7308C47.2731 42.8811 46.6951 43.5218 46.2675 44.1547C45.84 44.7877 45.4619 45.3397 45.4271 45.3815C45.3925 45.423 45.1962 45.3063 44.9909 45.122C44.5393 44.716 44.5207 44.8619 44.918 45.6932C45.3525 46.6025 45.8977 46.5382 46.4451 45.5135C47.0889 44.3086 47.8943 43.4191 48.1334 43.6494C48.2424 43.7543 48.5359 45.2368 48.7859 46.944C49.2645 50.2136 49.3858 50.5185 50.4209 51.0498C50.6973 51.1919 51.0697 51.308 51.2485 51.308C51.5044 51.308 51.4498 51.181 50.9901 50.7078C50.2018 49.8964 50.0489 49.4216 49.6388 46.5131C49.2412 43.6935 49.0078 42.8846 48.5167 42.6236C48.1047 42.4048 48.1706 42.3974 47.5519 42.7308ZM5.99732 43.7582C7.98615 44.2177 8.28023 44.3483 8.43834 44.8431C8.58827 45.3122 8.02689 48.1263 7.67384 48.6762C7.33641 49.2014 6.83604 49.2057 4.59293 48.703C2.56169 48.2475 2.02114 47.962 2.02114 47.3445C2.02114 46.6645 2.71607 43.9246 2.96384 43.6282C3.26537 43.2675 4.0109 43.2994 5.99732 43.7582ZM59.1737 44.5784C59.199 44.6735 58.6337 44.8043 57.9176 44.8687C57.2014 44.9332 56.2513 45.0841 55.8061 45.2041C55.361 45.324 54.9514 45.3772 54.8962 45.3222C54.6953 45.1227 55.2803 44.653 55.603 44.7548C55.7846 44.812 55.989 44.769 56.0574 44.6591C56.1259 44.5492 56.3212 44.5025 56.4916 44.555C56.662 44.6076 56.8988 44.5899 57.0178 44.5154C57.3296 44.3206 59.119 44.3728 59.1737 44.5784ZM108.606 45.4797C107.429 45.7039 106.285 45.9847 106.063 46.1032C105.414 46.4495 104.885 47.2487 104.893 47.87C104.907 49.0234 105.586 51.7158 105.953 52.081C106.33 52.4552 107.408 52.7832 107.815 52.6476C108.26 52.4993 108.043 52.0261 107.409 51.7631C106.606 51.4299 106.616 51.4479 106.281 49.7103C105.76 47.0062 105.825 46.9103 108.513 46.4331C111.581 45.8884 111.75 45.9743 112.128 48.2606C112.246 48.9717 112.383 49.6894 112.433 49.8556C112.483 50.0218 112.312 50.4079 112.053 50.7133C111.496 51.3708 111.443 51.8621 111.929 51.8621C112.42 51.8621 113.165 51.2321 113.433 50.5914C113.621 50.1389 113.594 49.7273 113.27 48.1509C112.645 45.1057 112.126 44.8084 108.606 45.4797ZM29.1323 46.74C29.4348 46.975 29.4422 49.1257 29.1416 49.4242C28.8337 49.7298 27.5981 49.7031 27.3321 49.3848C27.2011 49.2282 27.1364 48.6586 27.1699 47.9581C27.2182 46.9497 27.2843 46.7635 27.6598 46.5783C28.1085 46.357 28.7266 46.425 29.1323 46.74ZM79.5687 46.6551C79.6677 46.8387 79.7177 47.358 79.6801 47.8094C79.6379 48.316 79.714 48.7864 79.8788 49.0391C80.2596 49.6224 80.2374 49.6458 79.3089 49.6458C78.4964 49.6458 78.1852 49.3741 78.7508 49.1586C79.0803 49.033 79.1521 47.1569 78.8347 46.9622C78.7015 46.8804 78.7086 46.7602 78.8576 46.582C79.1495 46.2329 79.3524 46.2538 79.5687 46.6551ZM82.3366 46.6089C82.6889 46.8538 82.7501 47.0673 82.7501 48.0495C82.7501 49.3514 82.5615 49.6458 81.727 49.6458C81.1214 49.6458 80.704 49.3669 80.704 48.9624C80.704 48.8304 80.8295 48.7224 80.983 48.7224C81.1364 48.7224 81.262 48.8112 81.262 48.92C81.262 49.2489 82.0907 49.0234 82.1573 48.6762C82.2047 48.4291 82.0935 48.353 81.6848 48.353C81.3909 48.353 81.0499 48.2532 80.9272 48.1313C80.4062 47.614 80.9021 46.3213 81.6214 46.3213C81.7875 46.3213 82.1093 46.4508 82.3366 46.6089ZM84.7361 46.596C85.0663 46.8254 85.131 47.0579 85.131 48.0128C85.131 49.3043 84.913 49.6458 84.0882 49.6458C83.3263 49.6458 83.1487 49.3485 83.1487 48.073C83.1487 46.497 83.7668 45.9219 84.7361 46.596ZM87.152 46.5943C87.4817 46.8235 87.5456 47.0603 87.5516 48.0728C87.5592 49.3771 87.3645 49.6458 86.4123 49.6458C85.7475 49.6458 85.5669 49.3097 85.5669 48.073C85.5669 46.4985 86.1852 45.9219 87.152 46.5943ZM31.3027 46.6182C31.6769 46.7607 31.6894 47.4295 31.3179 47.4295C31.1645 47.4295 31.0389 47.3464 31.0389 47.2448C31.0389 47.1432 30.8715 47.0601 30.6669 47.0601C30.3399 47.0601 30.2949 47.1833 30.2949 48.0759C30.2949 48.9685 30.3399 49.0917 30.6669 49.0917C30.8715 49.0917 31.0389 49.0086 31.0389 48.907C31.0389 48.8055 31.1645 48.7224 31.3179 48.7224C31.4714 48.7224 31.597 48.8304 31.597 48.9624C31.597 49.6364 30.4926 49.8807 29.891 49.3401C29.4906 48.9804 29.4061 47.093 29.774 46.7277C30.0123 46.4911 30.8177 46.4335 31.3027 46.6182ZM33.085 46.6798C33.085 46.7755 33.0013 46.905 32.899 46.9678C32.5488 47.1828 32.6911 47.7989 33.0908 47.7989C33.5382 47.7989 33.7815 47.3083 33.4818 47.0108C33.1369 46.6684 33.2387 46.506 33.798 46.506C34.437 46.506 34.636 46.67 34.3752 46.982C34.2683 47.11 34.2061 47.6567 34.2374 48.1967C34.288 49.0725 34.3391 49.1789 34.7102 49.1813C35.5488 49.1868 35.1075 49.5549 34.2037 49.6041C33.4699 49.644 33.2711 49.5947 33.2711 49.3732C33.2711 49.2184 33.3605 49.0917 33.4701 49.0917C33.8721 49.0917 33.5564 48.2615 33.1315 48.2015C32.7937 48.154 32.713 48.2313 32.713 48.6017C32.713 48.8544 32.8116 49.0936 32.932 49.1335C33.3321 49.2659 32.8858 49.6458 32.33 49.6458C31.9677 49.6458 31.783 49.5522 31.783 49.3688C31.783 49.2164 31.8667 49.0917 31.969 49.0917C32.0713 49.0917 32.155 48.6346 32.155 48.0759C32.155 47.5172 32.0713 47.0601 31.969 47.0601C31.8667 47.0601 31.783 46.9355 31.783 46.7831C31.783 46.5895 31.9794 46.506 32.434 46.506C32.7921 46.506 33.085 46.5842 33.085 46.6798ZM73.693 48.1108C75.6437 49.117 78.5025 51.9938 79.4858 53.9395C79.8833 54.7265 80.1656 55.4134 80.113 55.4656C80.0602 55.5179 79.6675 55.066 79.2404 54.4611C77.5371 52.0501 74.3781 49.1433 71.9149 47.7202C69.9335 46.5755 71.2976 46.8752 73.693 48.1108ZM27.7275 48.0298C27.78 48.9342 27.8181 49.0033 28.2952 49.0578C28.7992 49.1154 28.8068 49.1008 28.8068 48.0881C28.8068 47.0651 28.804 47.0601 28.2391 47.0601H27.6712L27.7275 48.0298ZM81.2968 47.3833C81.3308 47.561 81.5462 47.7331 81.7754 47.7656C82.0918 47.8103 82.1921 47.7326 82.1921 47.4424C82.1921 47.1549 82.0734 47.0601 81.7134 47.0601C81.3578 47.0601 81.2506 47.1432 81.2968 47.3833ZM83.6801 47.3429C83.6801 47.7228 84.2363 47.916 84.4307 47.6037C84.6366 47.2729 84.4843 47.0601 84.0412 47.0601C83.841 47.0601 83.6801 47.1861 83.6801 47.3429ZM86.0983 47.3174C86.0983 47.6428 86.661 47.8681 86.8944 47.6364C86.9911 47.5403 87.014 47.3713 86.9454 47.2609C86.7642 46.9698 86.0983 47.0143 86.0983 47.3174ZM83.7127 48.6612C83.7916 49.0677 84.5172 49.1229 84.5172 48.7224C84.5172 48.57 84.3213 48.4178 84.0821 48.3842C83.7447 48.3367 83.6617 48.399 83.7127 48.6612ZM86.0983 48.7224C86.0983 49.0264 86.1946 49.1037 86.5168 49.0585C86.7469 49.026 86.9353 48.8747 86.9353 48.7224C86.9353 48.57 86.7469 48.4187 86.5168 48.3862C86.1946 48.341 86.0983 48.4183 86.0983 48.7224ZM0.161023 51.5504C0.161023 52.1375 0.337177 52.363 1.93706 53.8239C3.67162 55.4078 3.71161 55.4631 3.65767 56.1933L3.60223 56.9412H1.83513C0.167161 56.9412 0.0648537 56.9635 0.0109104 57.3392C-0.0426609 57.7128 0.0492288 57.7438 1.499 57.8408C2.34889 57.8977 4.20045 57.9852 5.61339 58.0353L8.18277 58.1265L8.12454 57.6262C8.06651 57.1262 8.06502 57.1258 6.32154 57.0725L4.57675 57.0189L4.69542 56.159C4.76071 55.686 4.88311 55.2529 4.96737 55.1965C5.05164 55.1402 5.84609 54.5198 6.73299 53.8178C8.18965 52.6648 8.34552 52.4807 8.34552 51.9146V51.2879L6.71793 52.5314C5.82284 53.2152 4.9045 53.9384 4.6772 54.1385L4.26425 54.5019L3.28211 53.6474C2.74212 53.1773 1.81876 52.3667 1.23059 51.8457L0.161023 50.8986V51.5504ZM27.41 54.3093C27.9995 58.0423 29.9163 62.9097 32.0106 65.9911C36.6773 72.8574 43.277 77.2093 51.531 78.8632C54.5191 79.4618 59.9737 79.4559 62.8245 78.8508C70.845 77.1485 77.252 73.0108 81.8336 66.5743C84.1074 63.3801 86.3213 57.9575 86.7659 54.494C86.8622 53.7432 86.9632 53.5243 87.214 53.5243C87.5172 53.5243 87.5205 53.6198 87.2653 55.0481C86.8797 57.2071 85.5233 61.1688 84.4216 63.3539C80.2979 71.5328 72.1601 77.6583 63.0329 79.4535C56.6359 80.7118 49.5364 79.8288 43.7798 77.0589C36.6094 73.6089 31.1712 67.7104 28.3112 60.2813C27.6753 58.6292 26.9087 55.847 26.666 54.3093C26.5549 53.6065 26.5808 53.5243 26.9139 53.5243C27.2082 53.5243 27.312 53.6885 27.41 54.3093ZM38.17 54.9084C38.5341 55.6697 39.098 56.6765 39.4232 57.1456C39.8992 57.8328 39.9645 58.0316 39.7584 58.1679C39.4775 58.3535 37.4617 58.2298 35.9124 57.9318C33.5884 57.4849 33.9625 59.1863 36.6786 61.4161C37.7541 62.2989 39.7913 63.3252 41.1765 63.682C41.6881 63.8137 42.1717 63.9781 42.2513 64.0474C42.5048 64.2675 40.4656 66.0057 38.8813 66.9197L37.352 67.8022L37.7651 68.239C38.3391 68.8455 39.8399 69.5146 41.2353 69.7861C43.2229 70.1729 46.3434 69.7632 48.5431 68.8268C49.3947 68.4643 49.4055 68.4643 50.4963 68.825C54.8512 70.2652 60.2619 70.2024 64.2829 68.665C68.8999 66.8998 72.8582 63.1324 75.485 58.0028C76.2213 56.5647 76.2936 56.4853 76.764 56.5961C77.8926 56.8617 79.5898 57.6827 81.1225 58.7042C82.0178 59.3008 82.7499 59.73 82.7495 59.6578C82.7479 59.175 81.7332 55.9119 81.2681 54.8933C80.9579 54.2138 80.704 53.628 80.704 53.5912C80.704 53.5545 81.8029 53.5243 83.1461 53.5243H85.5882L85.4601 54.494C85.0038 57.9483 83.3727 61.965 80.9445 65.6145C79.3863 67.9566 75.717 71.6347 73.4261 73.1512C69.2046 75.9456 64.0991 77.727 59.3126 78.0753C48.9749 78.8277 38.9453 74.0233 33.301 65.615C30.8981 62.0355 29.3278 58.1655 28.7132 54.3093L28.588 53.5243H33.048H37.508L38.17 54.9084ZM112.884 55.5667V57.0549L109.303 56.998C105.827 56.9428 105.722 56.952 105.722 57.3105C105.722 57.655 105.886 57.6879 108.141 57.7974C109.471 57.862 111.04 57.9243 111.628 57.9359L112.698 57.957V59.4345V60.912H113.228H113.758L113.879 59.2214C113.946 58.2916 114 56.7541 114 55.8046V54.0784H113.442H112.884V55.5667ZM3.92775 60.13C0.229103 60.5881 0.161023 60.6043 0.161023 61.0313C0.161023 61.2705 0.252725 61.4661 0.36489 61.4661C0.477055 61.4661 2.03565 61.2931 3.82824 61.0818C5.62083 60.8703 7.15617 60.7663 7.24024 60.8509C7.32414 60.9353 7.41882 61.6277 7.45062 62.3896L7.50847 63.7748L4.34628 64.1743C2.60707 64.394 1.03174 64.5811 0.845543 64.5898C0.604473 64.6013 0.524302 64.7252 0.566526 65.0214C0.636653 65.5116 0.8887 65.5098 5.06149 64.9889C6.86413 64.764 7.65896 64.7276 7.71011 64.8676C7.84069 65.2246 8.14482 67.637 8.06874 67.7126C8.02819 67.7528 6.46253 67.966 4.58958 68.186C1.19283 68.5851 1.1839 68.5875 1.1281 69.0601L1.07211 69.534L2.15116 69.3966C2.74454 69.3211 4.55796 69.109 6.18072 68.9253C7.80367 68.7415 9.16509 68.5038 9.20639 68.3969C9.24768 68.2899 9.04939 66.293 8.76573 63.9593C8.35557 60.587 8.19281 59.7106 7.97201 59.6897C7.81949 59.6753 5.99936 59.8735 3.92775 60.13ZM54.3368 62.044C54.2091 62.1731 54.1043 62.4267 54.1043 62.6077C54.1043 63.2105 55.2862 63.2665 57.1319 62.7506C58.3047 62.4228 58.0095 62.2915 55.2204 61.9007C54.8259 61.8453 54.4777 61.9018 54.3368 62.044ZM105.566 62.1587C105.187 63.5352 104.663 67.0224 104.77 67.4475C105.059 68.5878 106.515 69.3584 107.746 69.0213C108.271 68.8773 108.506 68.9243 109.187 69.3109C110.136 69.8498 110.812 69.8942 111.7 69.4762C112.549 69.0762 112.685 68.777 113.194 66.1859C113.73 63.4593 113.731 63.3437 113.209 63.2236C112.463 63.0517 105.988 61.8355 105.819 61.8355C105.728 61.8355 105.615 61.981 105.566 62.1587ZM108.37 63.2957C108.598 63.3561 108.8 63.4702 108.818 63.5494C108.911 63.9474 108.136 67.512 107.896 67.7918C107.513 68.2377 106.516 68.2085 106.088 67.739C105.756 67.3748 105.756 67.2972 106.078 65.2918C106.26 64.1526 106.45 63.1559 106.499 63.0764C106.582 62.9425 107.393 63.0375 108.37 63.2957ZM112.215 64.0594C112.486 64.3174 111.653 68.3453 111.272 68.6218C110.58 69.1246 109.351 68.6468 109.348 67.8736C109.348 67.6509 109.493 66.6096 109.671 65.5596L109.995 63.6506L111.021 63.7746C111.585 63.8429 112.123 63.9709 112.215 64.0594ZM5.18333 76.7498C4.29717 77.1891 3.62065 78.5221 3.80052 79.4742C3.97463 80.3952 5.07451 81.5259 5.95658 81.6903C8.07469 82.0848 9.8351 79.5818 8.71848 77.7635C7.95583 76.5213 6.49081 76.1011 5.18333 76.7498ZM106.221 76.8011C105.421 77.2859 104.804 78.6148 104.97 79.4965C105.139 80.39 106.066 81.3661 106.976 81.6096C109.052 82.1644 110.955 79.8066 109.964 77.9074C109.246 76.5302 107.514 76.0184 106.221 76.8011ZM13.7399 88.0361L11.6007 90.04L11.6539 98.701L11.7071 107.362L13.7931 109.344L15.879 111.326L19.7294 111.33L23.58 111.333L25.7212 109.348L27.8624 107.362L27.8697 105.746L27.8767 104.13H25.7376H23.5985V105.075C23.5985 105.921 23.5254 106.093 22.9009 106.713L22.2034 107.405L19.7852 107.415L17.3671 107.425L16.6695 106.756L15.972 106.087V98.6803V91.274L16.5855 90.6837L17.1987 90.0934H19.7955H22.392L22.9952 90.7461C23.5198 91.3135 23.5985 91.5286 23.5985 92.3948V93.3913L25.4859 93.3883C26.524 93.3866 27.4867 93.3423 27.625 93.2895C27.8105 93.2189 27.8749 92.774 27.8695 91.5973L27.8622 90.0011L25.6876 88.0156L23.5129 86.0302L19.6959 86.0311L15.879 86.0322L13.7399 88.0361ZM34.0616 88.0248L31.9688 90.0011L31.969 98.6868V107.372L34.094 109.353L36.219 111.333H40.8045H45.3901L47.5151 109.353L49.6401 107.372V98.6816V89.9909L47.5151 88.0104L45.3901 86.0302L40.7721 86.0394L36.1542 86.0486L34.0616 88.0248ZM87.7196 88.1141L85.5274 90.1857L85.5339 91.7059C85.5416 93.5135 85.461 93.4618 88.1444 93.3796L89.9115 93.3255L89.9685 92.3097C90.0159 91.4627 90.1225 91.1942 90.6094 90.6936L91.1935 90.0934H94.1141H97.0345L97.6117 90.7463C98.1773 91.3857 98.189 91.4378 98.189 93.2945V95.1898L97.4837 95.8737L96.7783 96.5576H94.0425H91.3066V98.3122V100.067H94.059H96.8114L97.5002 100.767L98.189 101.467V103.722V105.977L97.4818 106.7L96.7744 107.424L94.0992 107.443L91.424 107.463L90.7142 106.775C90.0685 106.149 90.0045 105.999 90.0045 105.108V104.13H87.7724H85.5403V105.679V107.228L87.7501 109.281L89.9597 111.333H94.0562H98.1528L100.292 109.348L102.431 107.362L102.449 103.766L102.467 100.171L101.496 99.1937L100.524 98.2169L101.496 97.3729L102.467 96.529V93.3292V90.1292L100.306 88.0797L98.1442 86.0302L94.0278 86.0363L89.9115 86.0424L87.7196 88.1141ZM55.0344 88.6063V90.4434L56.0109 90.4994L56.9875 90.5551L57.0359 98.7278L57.0844 106.9H56.0593H55.0344V108.747V110.594H59.1266H63.2189V108.747V106.9H62.1917H61.1646L61.2152 103.437L61.2658 99.9744H63.0329H64.8L64.9211 100.99C64.9877 101.549 65.0582 103.128 65.0777 104.499L65.1132 106.993L67.0727 108.793L69.0323 110.594H72.8909H76.7495L78.7719 108.681L80.794 106.768L80.7428 98.6618L80.6917 90.5551L78.7231 88.662L76.7544 86.7689H72.8561H68.9579L67.4371 88.2138C66.6006 89.0085 65.6858 89.8699 65.4045 90.1281L64.893 90.5974V93.67V96.7423H63.0329H61.1728V93.6025V90.4628H62.1958H63.2189V88.6159V86.7689H59.1266H55.0344V88.6063ZM44.7483 90.6837L45.3618 91.274V98.6964V106.119L44.6172 106.787L43.8726 107.454H40.8045H37.7364L36.9918 106.787L36.2472 106.119V98.715V91.3114L36.8417 90.7025L37.4362 90.0934H40.7857H44.135L44.7483 90.6837ZM76.0457 91.1011L76.6688 91.7394L76.7594 98.5929L76.8498 105.447L76.135 106.173L75.4201 106.9H72.908H70.396L69.6906 106.216L68.9852 105.533V98.571V91.6092L69.6428 91.0361L70.3003 90.4628H72.8615H75.4227L76.0457 91.1011Z" fill="white"/>
</g>
<defs>
<clipPath id="clip0_318_4">
<rect width="114" height="111" fill="white" transform="translate(0 0.333008)"/>
</clipPath>
</defs>
</svg>
