<svg width="114" height="111" viewBox="0 0 114 111" fill="none" xmlns="http://www.w3.org/2000/svg">
<path fill-rule="evenodd" clip-rule="evenodd" d="M54.4044 2.26248C54.3441 3.50693 54.2695 5.32412 54.2386 6.30077L54.1823 8.07659L55.846 8.19387C59.1398 8.42603 59.7993 8.36933 60.4432 7.79807C61.4417 6.9121 61.5732 4.87994 60.7022 3.79709C60.2157 3.19241 59.2965 2.99995 56.755 2.97059L55.4064 2.95507V1.47754C55.4064 0.0411864 55.394 0 54.9602 0C54.5193 0 54.5124 0.0278885 54.4044 2.26248ZM62.435 3.21992C62.3619 8.83087 62.3335 8.39666 62.7775 8.45945C63.1555 8.51301 63.1782 8.42252 63.2857 6.42784C63.3476 5.27979 63.4207 3.42604 63.4481 2.30865L63.4979 0.277038L62.9864 0.218677L62.4748 0.160129L62.435 3.21992ZM46.5709 1.02172C45.4455 1.25498 44.4725 1.45279 44.4087 1.46165C44.2967 1.47698 44.4807 2.59123 45.3644 7.24917C45.6788 8.90586 45.8441 9.4193 46.0634 9.4193C46.7145 9.4193 50.521 8.64784 51.0725 8.40423C51.989 7.9992 52.305 7.37956 52.2052 6.18349C52.1453 5.46578 51.9976 5.03877 51.7012 4.72572C51.3605 4.36539 51.3199 4.21283 51.4842 3.90809C51.9615 3.02267 51.5777 1.67091 50.6417 0.939713C50.0165 0.451572 49.2494 0.466901 46.5709 1.02172ZM66.2911 1.64081C66.1662 2.54173 66.1899 2.60637 67.1419 3.95998C67.6804 4.7259 68.0851 5.38378 68.0416 5.42219C67.9979 5.46061 67.3139 5.84274 66.5215 6.27141C65.7291 6.70008 65.0416 7.1136 64.9936 7.19062C64.9458 7.26764 64.851 7.67581 64.7831 8.09783C64.6651 8.83013 64.6813 8.86522 65.1359 8.86522C65.5174 8.86522 65.624 8.76401 65.6713 8.35732C65.7204 7.93253 65.9711 7.72143 67.2066 7.06448C68.0187 6.63285 68.706 6.27953 68.7339 6.27953C68.7618 6.27953 69.2362 6.88588 69.7883 7.62723C70.6093 8.72929 70.7769 9.07762 70.7085 9.54009C70.6465 9.9599 70.7094 10.1376 70.9527 10.2303C71.3359 10.3764 71.5157 10.1442 71.6757 9.29759C71.7754 8.76992 71.6545 8.49732 70.7577 7.22664L69.7248 5.76313L70.5176 5.30602C70.9536 5.05447 71.6629 4.67197 72.0939 4.45588C72.73 4.13674 72.9151 3.92323 73.0786 3.32003C73.3052 2.48522 73.2151 2.21631 72.7092 2.21631C72.4804 2.21631 72.3238 2.39343 72.2473 2.73899C72.1538 3.16212 71.8476 3.412 70.6398 4.05085C69.8191 4.48506 69.1184 4.81086 69.0825 4.77503C69.0466 4.73902 68.5913 4.12935 68.0708 3.42031C67.2533 2.30644 67.14 2.04879 67.2384 1.52722C67.3072 1.16301 67.2765 0.923461 67.161 0.923461C67.0557 0.923461 66.8457 0.876364 66.6945 0.81874C66.4832 0.738214 66.3896 0.928448 66.2911 1.64081ZM50.3986 1.95644C50.7018 2.31936 50.7212 3.43306 50.4291 3.72303C50.3106 3.84067 49.2517 4.11864 48.0757 4.34082C45.6596 4.79756 45.8101 4.86405 45.6194 3.25464L45.5056 2.29295L47.1544 1.99966C49.3627 1.60664 50.0978 1.59685 50.3986 1.95644ZM38.5724 3.06404C36.9355 3.61295 35.4926 4.10072 35.3659 4.14819C35.2024 4.20951 35.5199 5.34573 36.4628 8.07363C37.1925 10.185 37.8034 11.9315 37.8201 11.9544C37.865 12.0163 44.2249 9.87106 44.3421 9.75452C44.3971 9.69985 44.3594 9.43925 44.2584 9.17532L44.0746 8.69568L41.4524 9.61157C40.0101 10.1152 38.7169 10.5275 38.5787 10.5275C38.4379 10.5275 38.1635 10.0452 37.9541 9.42927L37.5806 8.33109L39.0065 7.85145C42.1801 6.78374 42.2963 6.72981 42.2305 6.35581C42.1964 6.16151 42.1066 5.93822 42.0311 5.85973C41.9554 5.78124 40.917 6.05144 39.7234 6.45998C38.5298 6.8687 37.4747 7.20299 37.3787 7.20299C37.2826 7.20299 37.0266 6.7324 36.8099 6.15727C36.5104 5.36254 36.4705 5.07811 36.6429 4.97228C36.7677 4.89564 38.0279 4.44277 39.4435 3.9659C40.8588 3.48902 42.0484 3.04576 42.0865 2.98075C42.1897 2.80529 41.8627 2.02884 41.694 2.04897C41.614 2.05839 40.2093 2.51532 38.5724 3.06404ZM60.1032 4.63023C60.6969 5.35497 60.3828 6.93076 59.6064 7.12284C59.3936 7.17529 58.3407 7.19413 57.2665 7.16458L55.3134 7.11065L55.2589 5.55831L55.2044 4.00597L57.491 4.11956C59.5299 4.22058 59.813 4.27599 60.1032 4.63023ZM50.9739 5.47705C51.4691 5.92197 51.4245 6.94147 50.8956 7.26875C50.5258 7.49758 47.5245 8.12646 46.8025 8.12646C46.6192 8.12646 46.4594 7.78163 46.3175 7.0798C46.2011 6.5043 46.1533 5.98476 46.2111 5.92548C46.3583 5.77495 49.2262 5.22051 49.9974 5.19354C50.3566 5.18098 50.782 5.30454 50.9739 5.47705ZM29.0858 7.28038C27.2735 8.33516 26.8505 8.91952 27.0692 10.0657C27.2216 10.8645 29.4939 14.5452 30.0635 14.9157C30.8975 15.4584 31.7383 15.2862 33.5579 14.1999C34.9885 13.3457 35.256 13.107 35.4533 12.5072C35.7523 11.5996 35.5181 10.9101 34.12 8.58412C32.5054 5.89759 31.783 5.7105 29.0858 7.28038ZM32.203 7.43386C32.3708 7.56093 32.976 8.45428 33.5478 9.4193C35.056 11.9647 34.971 12.2078 32.0162 13.7908C31.1066 14.2784 31.0075 14.295 30.5523 14.0366C30.2839 13.8842 29.8849 13.4271 29.6658 13.0208C29.4467 12.6145 28.9907 11.805 28.6526 11.2219C27.7262 9.62523 27.8276 9.34118 29.7368 8.18353C31.4221 7.16162 31.7225 7.0702 32.203 7.43386ZM82.4677 10.4599C81.2817 12.251 80.3557 13.832 80.4104 13.9731C80.4649 14.1142 80.6327 14.2767 80.7834 14.334C80.9339 14.3914 82.7564 13.8139 84.8332 13.0507C86.9102 12.2876 88.639 11.7451 88.6751 11.8452C88.7114 11.9452 87.9657 13.1876 87.0181 14.606C85.3784 17.0606 85.3124 17.1978 85.6502 17.4453C85.8455 17.5884 86.0626 17.6488 86.1325 17.5796C86.3635 17.3507 90.5784 10.8507 90.5233 10.8082C89.948 10.3634 89.6435 10.4214 86.0356 11.6616C83.9912 12.3644 82.2512 12.9163 82.169 12.8878C82.087 12.8594 82.7748 11.6827 83.6978 10.2729C85.2884 7.84369 85.5397 7.20299 84.902 7.20299C84.7478 7.20299 83.666 8.65024 82.4677 10.4599ZM21.0873 12.6908C19.8596 13.6499 18.8552 14.5076 18.8552 14.5968C18.8552 14.838 23.6457 20.8702 23.8373 20.8702C24.1063 20.8702 28.0467 17.7358 28.2486 17.3612C28.7391 16.4515 28.3324 15.2111 27.2287 14.2486C26.7039 13.7911 26.3946 13.668 25.7776 13.6705C25.0845 13.6735 24.7887 13.8349 23.2264 15.0633L21.4593 16.4529L20.8548 15.7681C20.5224 15.3913 20.2503 15.0158 20.2503 14.9335C20.2503 14.8511 21.0838 14.1378 22.1026 13.3483C23.1212 12.5587 23.9582 11.8216 23.9627 11.7104C23.9669 11.5992 23.8239 11.3818 23.645 11.2274C23.3462 10.97 23.1357 11.0904 21.0873 12.6908ZM92.3297 13.6534C92.1251 13.7448 91.2203 14.5608 90.3191 15.4665C88.538 17.2565 88.0728 18.1133 88.3459 19.1014C88.5194 19.7286 90.9121 22.0857 91.6714 22.3771C92.1907 22.5766 92.871 22.453 93.5079 22.0438C93.9203 21.7787 93.926 21.7473 93.6239 21.4158C93.3855 21.1541 93.2218 21.1116 92.9696 21.2455C92.3354 21.5826 92.0088 21.4223 90.6357 20.1002C89.6602 19.1611 89.2605 18.6441 89.2605 18.3218C89.2605 17.9999 89.7311 17.3901 90.8753 16.2291C92.9266 14.1478 93.0462 14.1358 94.857 15.832C96.1658 17.0578 96.1809 17.0827 96.0756 17.8459C95.9969 18.4153 96.0445 18.6809 96.256 18.8552C96.5929 19.1328 96.7811 18.9265 97.0508 17.9842C97.3291 17.0127 97.0955 16.5434 95.5964 15.0639C94.3803 13.8634 94.0395 13.6277 93.4277 13.5634C93.0283 13.5213 92.5343 13.5619 92.3297 13.6534ZM26.9002 15.2624C27.6624 16.0948 27.4753 16.6699 26.0631 17.8335C25.3726 18.4024 24.5942 19.0214 24.3332 19.2089L23.8591 19.5499L22.964 18.452L22.0691 17.3542L22.5903 16.942C25.7932 14.4099 26.0339 14.3162 26.9002 15.2624ZM55.4994 16.1822C49.9654 16.6354 46.229 17.6425 41.827 19.8677C38.2549 21.6733 35.7867 23.5276 32.7448 26.691C28.5661 31.0368 25.6859 36.6067 24.4279 42.7754C24.1764 44.0094 23.9705 45.0708 23.9705 45.1343C23.9705 45.1977 22.7478 45.2496 21.2534 45.2496C19.155 45.2496 18.5572 45.3022 18.6277 45.4804C18.6781 45.6075 19.3076 46.7864 20.0267 48.1005L21.334 50.4897L19.9539 53.2257L18.5737 55.9617L19.0866 55.9691C19.3686 55.9734 20.6842 55.9941 22.0101 56.0153L24.4212 56.0541L24.5944 56.7005C25.1619 58.818 26.3079 62.0209 27.0092 63.4495C29.7164 68.9648 33.8596 73.6781 38.8514 76.9213C42.0095 78.9733 46.601 80.8254 50.5701 81.6483C53.5582 82.268 59.3419 82.3587 62.4064 81.8341C73.175 79.9909 81.9607 73.5686 86.8089 63.9958C87.7707 62.0965 88.8414 59.231 89.2586 57.4393C89.3888 56.8806 89.5814 56.316 89.6864 56.1845C89.8289 56.0062 90.5609 55.9521 92.5577 55.9721C94.0315 55.9868 95.2796 55.9569 95.3312 55.906C95.3825 55.8548 94.8328 54.6801 94.1096 53.2955C93.3864 51.9109 92.7947 50.6744 92.7947 50.5475C92.7947 50.4208 93.3799 49.2393 94.0951 47.9219C94.8101 46.6045 95.3961 45.4666 95.3972 45.3931C95.3981 45.3198 94.2078 45.2367 92.7523 45.2084L90.1057 45.1572L89.9582 44.2338C88.2888 33.7793 81.8104 24.7633 72.5338 19.9844C68.956 18.1414 65.7148 17.0855 62.0027 16.5536C60.0254 16.2703 56.7247 16.0817 55.4994 16.1822ZM62.3422 19.2261C70.4013 20.5466 77.5883 25.1385 82.4419 32.0677C84.5685 35.1041 87.5131 42.1992 86.7493 42.4472C86.4975 42.5291 86.3996 42.3098 85.732 40.1652C83.2503 32.1928 77.1402 25.4027 69.3573 21.968C65.7726 20.3861 62.3699 19.621 58.1966 19.4579C49.2652 19.1092 41.0437 22.5332 34.8388 29.1856C32.3544 31.8492 30.6094 34.6717 29.1323 38.416C28.6714 39.5841 28.1846 40.9764 28.0503 41.5096C27.8635 42.2518 27.724 42.4792 27.4547 42.4792C27.1557 42.4792 27.1223 42.3893 27.2309 41.879C27.8537 38.9543 30.1756 34.0212 32.2513 31.213C33.9794 28.8748 36.7136 26.1855 39.0696 24.5066C41.1159 23.0483 45.2286 20.9439 47.3769 20.2559C52.1533 18.7263 57.1804 18.3804 62.3422 19.2261ZM96.6829 21.6276C95.0047 22.9574 93.5687 24.1044 93.4915 24.1762C93.4145 24.248 93.4673 24.4645 93.6093 24.6571C93.9004 25.0524 93.7787 25.1113 95.6481 23.6692L96.6885 22.8667L97.1539 23.3922C97.7244 24.0364 97.7337 24.3823 97.2443 26.7648C96.8814 28.5311 96.8765 28.6764 97.1662 29.1152C97.3358 29.3723 97.5307 29.5286 97.5994 29.4621C97.6678 29.3958 97.9351 28.2459 98.1933 26.9067L98.6626 24.4717L101.309 24.5399C102.93 24.5816 103.955 24.5389 103.955 24.43C103.955 24.3321 103.783 24.0972 103.573 23.9082C103.254 23.6221 102.802 23.5516 100.881 23.488L98.5713 23.4116L98.101 22.7997C97.8425 22.4632 97.631 22.1529 97.631 22.1102C97.631 22.0676 98.2136 21.5842 98.9258 21.0359C100.259 20.0094 100.415 19.7709 99.9846 19.4161C99.7886 19.2545 99.0704 19.7355 96.6829 21.6276ZM61.64 20.9648C66.3297 21.6958 71.332 23.8672 74.9783 26.7549C79.1748 30.0782 82.7864 35.1735 84.4073 40.057C85.3193 42.8048 85.5855 42.5788 81.4945 42.5296C79.5764 42.5065 77.7244 42.4857 77.3796 42.4834C76.82 42.4796 76.7795 42.4465 77.0047 42.177C77.788 41.2397 79.9692 40.4476 81.7661 40.4476C82.9344 40.4476 82.9966 40.2598 82.0981 39.4429C80.5816 38.0634 76.3537 36.2939 73.4495 35.8229C72.2306 35.6253 71.9469 35.5006 71.2023 34.8359C69.8072 33.5907 68.3939 32.9805 66.7985 32.9349L65.4395 32.8959L64.3132 31.8838C62.5758 30.3228 60.502 29.4889 57.8246 29.2748C55.6705 29.1027 54.8341 29.7685 55.8638 30.8357L56.3556 31.3454L53.7883 31.4424C46.6477 31.7124 41.8309 34.7142 38.676 40.8606L37.8283 42.5121L33.7361 42.4982C31.4853 42.4905 29.5326 42.4831 29.3966 42.4818C29.0964 42.4786 29.2041 41.8878 29.8683 39.8935C32.2102 32.8632 37.7867 26.676 44.6868 23.4524C50.2905 20.8344 55.7051 20.0398 61.64 20.9648ZM9.78804 25.1442C8.9097 25.9326 7.60148 28.266 7.60148 29.0445C7.60148 30.0437 8.0001 30.5329 9.7181 31.6415C13.1031 33.826 13.5285 34.0495 13.8303 33.8007C14.2445 33.4596 14.2015 33.3894 13.1682 32.7177C12.5803 32.3354 12.2613 32.009 12.3219 31.852C12.514 31.355 14.8479 27.8885 14.9899 27.8893C15.0697 27.8898 15.5073 28.1355 15.9627 28.4354C16.5946 28.8515 16.8496 28.9318 17.0403 28.7747C17.1775 28.6615 17.2655 28.4612 17.2356 28.3296C17.2056 28.1979 16.051 27.3662 14.6699 26.4813C12.538 25.1154 12.0165 24.8601 11.2161 24.7905C10.419 24.7212 10.1984 24.7759 9.78804 25.1442ZM12.7936 26.415L13.9512 27.1579L13.5274 27.8464C13.0258 28.6615 11.3208 31.2754 11.2356 31.36C11.1411 31.4538 9.02056 30.0897 8.76405 29.77C8.63626 29.6106 8.53172 29.3505 8.53209 29.1923C8.53265 28.8818 10.3187 26.0375 10.6537 25.8135C11.0786 25.5294 11.6748 25.697 12.7936 26.415ZM104.42 27.53C103.807 27.8289 103.074 28.3238 102.793 28.6302C102.034 29.456 102.114 30.1591 103.214 32.3437C103.726 33.3624 104.105 34.2626 104.054 34.3442C104.003 34.4257 103.67 34.6296 103.315 34.7973C102.203 35.3211 101.789 35.0699 100.96 33.3682C100.151 31.705 100.11 31.4728 100.526 30.8827C100.798 30.4979 100.75 29.7277 100.455 29.7414C99.9573 29.7644 99.1191 30.9474 99.1191 31.6271C99.1191 32.2022 100.594 35.2511 101.056 35.6321C101.218 35.766 101.707 35.9143 102.142 35.9614C102.839 36.0369 103.273 35.8798 105.815 34.6285C107.401 33.8482 108.726 33.1831 108.76 33.1506C108.794 33.1181 108.729 32.9186 108.615 32.7073C108.411 32.3289 108.385 32.3344 106.93 33.0608C106.117 33.4666 105.382 33.7987 105.297 33.7987C105.211 33.7987 104.712 32.9203 104.187 31.8467C103.475 30.3904 103.27 29.7925 103.378 29.4918C103.493 29.1697 105.05 28.1445 105.887 27.8398C106.071 27.7723 105.861 26.959 105.664 26.9758C105.594 26.9819 105.034 27.2312 104.42 27.53ZM59.4814 30.7586C61.1791 31.1559 62.6681 32.0092 63.8984 33.29L64.9646 34.3998L65.8227 34.2031C66.8883 33.9588 68.0105 34.1821 69.1713 34.8693L70.0083 35.3649L68.0829 35.5121C66.2025 35.6559 66.1248 35.6461 64.7457 35.0934C61.2907 33.7082 58.8296 33.3981 55.8714 33.9752C54.4496 34.2528 52.7755 34.4069 50.3841 34.4807C48.4914 34.5391 46.7963 34.6619 46.6174 34.7533C46.2031 34.9652 46.175 36.3784 46.5634 37.4713C47.0897 38.9527 48.5238 40.6399 50.184 41.7312C50.6181 42.0165 51.2139 42.6691 51.5521 43.2296C52.0526 44.0591 52.7639 44.6846 55.8714 47.0278C61.0387 50.9239 61.7674 51.6141 62.6689 53.463C63.0731 54.2919 63.4988 55.4415 63.6155 56.0175L63.8271 57.0647L65.6791 58.1947C67.6873 59.4199 69.1713 60.6982 69.1713 61.2026C69.1713 61.6453 68.3945 62.3135 67.5533 62.594C67.1644 62.7239 65.8913 62.8748 64.7241 62.9294C62.6986 63.0242 62.609 63.0129 62.7509 62.6812C62.8325 62.49 62.935 62.0843 62.9788 61.7795C63.0515 61.27 63.0113 61.2973 62.4767 62.1192C62.0054 62.8441 61.6677 63.1154 60.688 63.5565C58.8281 64.3937 56.9676 64.7102 54.6624 64.5815C52.7068 64.4723 50.1482 63.9022 48.3748 63.1804C47.7652 62.9324 46.8538 62.7944 45.3618 62.7241C44.1853 62.6685 42.6786 62.4928 42.0136 62.3336C40.2269 61.9059 37.9539 60.7251 36.9827 59.7204C36.4965 59.2173 36.3002 58.9144 36.5076 58.9872C37.0737 59.1857 40.4729 59.1425 40.8696 58.9316C41.1544 58.7803 41.4634 58.856 42.3201 59.2875C42.9189 59.5889 43.4903 59.8366 43.59 59.8379C43.6897 59.8392 43.178 59.2378 42.4528 58.5012C39.4552 55.4571 38.2266 52.4101 38.2266 48.02C38.2266 44.2541 39.1838 41.4468 41.4472 38.5743C44.8465 34.2604 49.2442 32.5058 56.6572 32.5058C58.1177 32.5058 59.3126 32.45 59.3126 32.3819C59.3126 32.3139 58.8731 31.8605 58.3361 31.3746C57.4403 30.5642 57.398 30.4905 57.8246 30.4853C58.0803 30.4821 58.8259 30.6052 59.4814 30.7586ZM5.00848 33.3111C4.81521 33.759 4.35279 34.9316 3.98095 35.9173C3.39297 37.4759 3.33121 37.7878 3.50551 38.3125C3.8221 39.265 4.34405 39.6028 7.39705 40.8301C10.1234 41.9262 10.2739 41.9654 10.5135 41.6401C10.6519 41.4523 10.7019 41.2401 10.6249 41.1684C10.5477 41.097 9.20006 40.518 7.63013 39.8817C5.49118 39.0149 4.72723 38.6195 4.58251 38.3042C4.42533 37.9616 4.53787 37.5134 5.18891 35.8873C5.62864 34.7894 6.01424 33.8587 6.04586 33.8192C6.07749 33.7795 7.54754 34.3446 9.31278 35.0749C12.2828 36.3035 12.5401 36.3786 12.759 36.0811C12.8892 35.9043 12.9958 35.7058 12.9958 35.64C12.9958 35.5743 11.552 34.9519 9.78711 34.2571C8.02224 33.5623 6.30424 32.8819 5.96923 32.7454L5.35986 32.497L5.00848 33.3111ZM61.5714 35.4411C65.2304 36.3668 66.7488 37.0947 69.2373 39.116C71.6087 41.0421 73.3958 43.4813 74.3003 46.0273C74.5176 46.6385 74.5133 46.7271 74.2665 46.7271C73.9002 46.7271 73.3085 46.0761 71.9162 44.1414C69.6463 40.9873 66.7449 38.585 63.6702 37.3141C61.9083 36.5857 59.5254 36.119 58.388 36.2795C54.8651 36.7763 52.9624 36.9855 50.9981 37.0923L48.729 37.2155L49.1542 38.4677L49.5792 39.7201L49.0281 39.2065C48.3703 38.5936 47.5982 37.0476 47.5958 36.3382L47.5939 35.8303H49.4217C51.6166 35.8303 54.7435 35.535 56.1505 35.1949C57.8199 34.7914 59.2617 34.857 61.5714 35.4411ZM106.071 36.6547C102.344 38.0163 102.107 38.4341 103.258 41.6089C103.946 43.5063 104.425 43.9549 105.763 43.956C106.497 43.9567 106.538 43.93 106.394 43.5447C106.295 43.2802 106.023 43.0883 105.632 43.0091C104.899 42.8602 104.871 42.8188 104.222 40.9219C103.548 38.9503 103.64 38.5824 104.93 38.0778C108.893 36.528 109.039 36.5515 109.885 38.8731C110.565 40.7387 110.591 41.0563 110.101 41.5096C109.859 41.7334 109.772 41.9846 109.844 42.2555C109.984 42.7882 110.125 42.771 110.807 42.1379C111.693 41.3167 111.726 40.8142 111.031 38.7968C110.003 35.8148 109.254 35.4914 106.071 36.6547ZM72.9845 37.0323C74.9919 37.3305 77.6876 38.1037 78.2293 38.5364C78.546 38.7894 78.5429 38.7985 78.1723 38.6984C76.4266 38.2263 74.7949 38.0111 72.2417 37.9167C69.6452 37.8207 69.2018 37.7588 68.754 37.4301C68.472 37.223 68.2412 36.9863 68.2412 36.9037C68.2412 36.6601 70.9785 36.7343 72.9845 37.0323ZM60.0567 39.1366C60.0567 39.2282 59.8056 39.3902 59.4987 39.4964C59.0029 39.668 58.9406 39.6493 58.9406 39.3298C58.9406 39.0532 59.0695 38.97 59.4987 38.97C59.8056 38.97 60.0567 39.045 60.0567 39.1366ZM54.2952 41.9344C56.6737 42.2271 59.8279 43.2712 59.3043 43.5925C59.156 43.6834 58.9546 43.6754 58.8309 43.5737C58.7126 43.4762 58.4765 43.4494 58.3063 43.5142C58.1272 43.5826 57.843 43.4939 57.6317 43.304C57.4222 43.116 57.2665 43.0671 57.2665 43.1893C57.2665 43.498 56.6088 43.4514 56.3346 43.1234C56.1553 42.909 56.0413 42.8933 55.8433 43.0565C55.6438 43.2209 55.4968 43.1901 55.1932 42.9202C54.8288 42.5963 54.7868 42.5935 54.6008 42.8829C54.4127 43.1749 54.3672 43.1749 53.8677 42.8829C53.3623 42.5874 53.3253 42.5889 53.1413 42.9145C52.9611 43.2333 52.9226 43.2202 52.5971 42.7298C52.1892 42.1155 52.1454 41.7404 52.4816 41.7404C52.6121 41.7404 53.4284 41.8278 54.2952 41.9344ZM2.23728 42.5747C1.77821 42.9581 1.61321 43.3319 1.29309 44.7125C0.822479 46.7419 0.810946 47.2481 1.22203 47.8403C1.74584 48.5951 2.01686 48.7164 4.46421 49.2943C8.01647 50.1328 8.57339 49.854 9.26014 46.8924C9.754 44.7627 9.74712 44.4718 9.1863 43.8101C8.63701 43.1618 8.21569 42.984 6.05219 42.4871C3.80555 41.9709 2.93594 41.9909 2.23728 42.5747ZM47.5519 42.3978C47.2731 42.5481 46.6951 43.1888 46.2675 43.8217C45.84 44.4547 45.4619 45.0067 45.4271 45.0485C45.3925 45.09 45.1962 44.9733 44.9909 44.789C44.5393 44.383 44.5207 44.5289 44.918 45.3602C45.3525 46.2695 45.8977 46.2052 46.4451 45.1805C47.0889 43.9756 47.8943 43.0861 48.1334 43.3164C48.2424 43.4213 48.5359 44.9038 48.7859 46.611C49.2645 49.8806 49.3858 50.1855 50.4209 50.7168C50.6973 50.8589 51.0697 50.975 51.2485 50.975C51.5044 50.975 51.4498 50.848 50.9901 50.3748C50.2018 49.5634 50.0489 49.0886 49.6388 46.1801C49.2412 43.3605 49.0078 42.5516 48.5167 42.2906C48.1047 42.0718 48.1706 42.0644 47.5519 42.3978ZM5.99732 43.4252C7.98615 43.8847 8.28023 44.0153 8.43834 44.5101C8.58827 44.9792 8.02689 47.7933 7.67384 48.3432C7.33641 48.8684 6.83604 48.8727 4.59293 48.37C2.56169 47.9145 2.02114 47.629 2.02114 47.0115C2.02114 46.3315 2.71607 43.5916 2.96384 43.2952C3.26537 42.9345 4.0109 42.9664 5.99732 43.4252ZM59.1737 44.2454C59.199 44.3405 58.6337 44.4713 57.9176 44.5357C57.2014 44.6002 56.2513 44.7511 55.8061 44.8711C55.361 44.991 54.9514 45.0442 54.8962 44.9892C54.6953 44.7897 55.2803 44.32 55.603 44.4218C55.7846 44.479 55.989 44.436 56.0574 44.3261C56.1259 44.2162 56.3212 44.1695 56.4916 44.222C56.662 44.2746 56.8988 44.2569 57.0178 44.1824C57.3296 43.9876 59.119 44.0398 59.1737 44.2454ZM108.606 45.1467C107.429 45.3709 106.285 45.6517 106.063 45.7702C105.414 46.1165 104.885 46.9157 104.893 47.537C104.907 48.6904 105.586 51.3828 105.953 51.748C106.33 52.1222 107.408 52.4502 107.815 52.3146C108.26 52.1663 108.043 51.6931 107.409 51.4301C106.606 51.0969 106.616 51.1149 106.281 49.3773C105.76 46.6732 105.825 46.5773 108.513 46.1001C111.581 45.5554 111.75 45.6413 112.128 47.9276C112.246 48.6387 112.383 49.3564 112.433 49.5226C112.483 49.6888 112.312 50.0749 112.053 50.3803C111.496 51.0378 111.443 51.5291 111.929 51.5291C112.42 51.5291 113.165 50.8991 113.433 50.2584C113.621 49.8059 113.594 49.3943 113.27 47.8179C112.645 44.7727 112.126 44.4754 108.606 45.1467ZM29.1323 46.407C29.4348 46.642 29.4422 48.7927 29.1416 49.0912C28.8337 49.3968 27.5981 49.3701 27.3321 49.0518C27.2011 48.8952 27.1364 48.3256 27.1699 47.6251C27.2182 46.6167 27.2843 46.4305 27.6598 46.2453C28.1085 46.024 28.7266 46.092 29.1323 46.407ZM79.5687 46.3221C79.6677 46.5057 79.7177 47.025 79.6801 47.4764C79.6379 47.983 79.714 48.4534 79.8788 48.7061C80.2596 49.2894 80.2374 49.3128 79.3089 49.3128C78.4964 49.3128 78.1852 49.0411 78.7508 48.8256C79.0803 48.7 79.1521 46.8239 78.8347 46.6292C78.7015 46.5474 78.7086 46.4272 78.8576 46.249C79.1495 45.8999 79.3524 45.9208 79.5687 46.3221ZM82.3366 46.2759C82.6889 46.5208 82.7501 46.7343 82.7501 47.7165C82.7501 49.0184 82.5615 49.3128 81.727 49.3128C81.1214 49.3128 80.704 49.0339 80.704 48.6294C80.704 48.4974 80.8295 48.3894 80.983 48.3894C81.1364 48.3894 81.262 48.4782 81.262 48.587C81.262 48.9159 82.0907 48.6904 82.1573 48.3432C82.2047 48.0961 82.0935 48.02 81.6848 48.02C81.3909 48.02 81.0499 47.9202 80.9272 47.7983C80.4062 47.281 80.9021 45.9883 81.6214 45.9883C81.7875 45.9883 82.1093 46.1178 82.3366 46.2759ZM84.7361 46.263C85.0663 46.4924 85.131 46.7249 85.131 47.6798C85.131 48.9713 84.913 49.3128 84.0882 49.3128C83.3263 49.3128 83.1487 49.0155 83.1487 47.74C83.1487 46.164 83.7668 45.5889 84.7361 46.263ZM87.152 46.2613C87.4817 46.4905 87.5456 46.7273 87.5516 47.7398C87.5592 49.0441 87.3645 49.3128 86.4123 49.3128C85.7475 49.3128 85.5669 48.9767 85.5669 47.74C85.5669 46.1655 86.1852 45.5889 87.152 46.2613ZM31.3027 46.2852C31.6769 46.4277 31.6894 47.0965 31.3179 47.0965C31.1645 47.0965 31.0389 47.0134 31.0389 46.9118C31.0389 46.8102 30.8715 46.7271 30.6669 46.7271C30.3399 46.7271 30.2949 46.8503 30.2949 47.7429C30.2949 48.6355 30.3399 48.7587 30.6669 48.7587C30.8715 48.7587 31.0389 48.6756 31.0389 48.574C31.0389 48.4725 31.1645 48.3894 31.3179 48.3894C31.4714 48.3894 31.597 48.4974 31.597 48.6294C31.597 49.3034 30.4926 49.5477 29.891 49.0071C29.4906 48.6474 29.4061 46.76 29.774 46.3947C30.0123 46.1581 30.8177 46.1005 31.3027 46.2852ZM33.085 46.3468C33.085 46.4425 33.0013 46.572 32.899 46.6348C32.5488 46.8498 32.6911 47.4659 33.0908 47.4659C33.5382 47.4659 33.7815 46.9753 33.4818 46.6778C33.1369 46.3354 33.2387 46.173 33.798 46.173C34.437 46.173 34.636 46.337 34.3752 46.649C34.2683 46.777 34.2061 47.3237 34.2374 47.8637C34.288 48.7395 34.3391 48.8459 34.7102 48.8483C35.5488 48.8538 35.1075 49.2219 34.2037 49.2711C33.4699 49.311 33.2711 49.2617 33.2711 49.0402C33.2711 48.8854 33.3605 48.7587 33.4701 48.7587C33.8721 48.7587 33.5564 47.9285 33.1315 47.8685C32.7937 47.821 32.713 47.8983 32.713 48.2687C32.713 48.5214 32.8116 48.7606 32.932 48.8005C33.3321 48.9329 32.8858 49.3128 32.33 49.3128C31.9677 49.3128 31.783 49.2192 31.783 49.0358C31.783 48.8834 31.8667 48.7587 31.969 48.7587C32.0713 48.7587 32.155 48.3016 32.155 47.7429C32.155 47.1842 32.0713 46.7271 31.969 46.7271C31.8667 46.7271 31.783 46.6025 31.783 46.4501C31.783 46.2565 31.9794 46.173 32.434 46.173C32.7921 46.173 33.085 46.2512 33.085 46.3468ZM73.693 47.7778C75.6437 48.784 78.5025 51.6608 79.4858 53.6065C79.8833 54.3935 80.1656 55.0804 80.113 55.1326C80.0602 55.1849 79.6675 54.733 79.2404 54.1281C77.5371 51.7171 74.3781 48.8103 71.9149 47.3872C69.9335 46.2425 71.2976 46.5422 73.693 47.7778ZM27.7275 47.6968C27.78 48.6012 27.8181 48.6703 28.2952 48.7248C28.7992 48.7824 28.8068 48.7678 28.8068 47.7551C28.8068 46.7321 28.804 46.7271 28.2391 46.7271H27.6712L27.7275 47.6968ZM81.2968 47.0503C81.3308 47.228 81.5462 47.4001 81.7754 47.4326C82.0918 47.4773 82.1921 47.3996 82.1921 47.1094C82.1921 46.8219 82.0734 46.7271 81.7134 46.7271C81.3578 46.7271 81.2506 46.8102 81.2968 47.0503ZM83.6801 47.0099C83.6801 47.3898 84.2363 47.583 84.4307 47.2707C84.6366 46.9399 84.4843 46.7271 84.0412 46.7271C83.841 46.7271 83.6801 46.8531 83.6801 47.0099ZM86.0983 46.9844C86.0983 47.3098 86.661 47.5351 86.8944 47.3034C86.9911 47.2073 87.014 47.0383 86.9454 46.9279C86.7642 46.6368 86.0983 46.6813 86.0983 46.9844ZM83.7127 48.3282C83.7916 48.7347 84.5172 48.7899 84.5172 48.3894C84.5172 48.237 84.3213 48.0848 84.0821 48.0512C83.7447 48.0037 83.6617 48.066 83.7127 48.3282ZM86.0983 48.3894C86.0983 48.6934 86.1946 48.7707 86.5168 48.7255C86.7469 48.693 86.9353 48.5417 86.9353 48.3894C86.9353 48.237 86.7469 48.0857 86.5168 48.0532C86.1946 48.008 86.0983 48.0853 86.0983 48.3894ZM0.161023 51.2174C0.161023 51.8045 0.337177 52.03 1.93706 53.4909C3.67162 55.0748 3.71161 55.1301 3.65767 55.8603L3.60223 56.6082H1.83513C0.167161 56.6082 0.0648537 56.6305 0.0109104 57.0062C-0.0426609 57.3798 0.0492288 57.4108 1.499 57.5078C2.34889 57.5647 4.20045 57.6522 5.61339 57.7023L8.18277 57.7935L8.12454 57.2932C8.06651 56.7932 8.06502 56.7928 6.32154 56.7395L4.57675 56.6859L4.69542 55.826C4.76071 55.353 4.88311 54.9199 4.96737 54.8635C5.05164 54.8072 5.84609 54.1868 6.73299 53.4848C8.18965 52.3318 8.34552 52.1477 8.34552 51.5816V50.9549L6.71793 52.1984C5.82284 52.8822 4.9045 53.6054 4.6772 53.8055L4.26425 54.1689L3.28211 53.3144C2.74212 52.8443 1.81876 52.0337 1.23059 51.5127L0.161023 50.5656V51.2174ZM27.41 53.9763C27.9995 57.7093 29.9163 62.5767 32.0106 65.6581C36.6773 72.5244 43.277 76.8763 51.531 78.5302C54.5191 79.1288 59.9737 79.1229 62.8245 78.5178C70.845 76.8155 77.252 72.6778 81.8336 66.2413C84.1074 63.0471 86.3213 57.6245 86.7659 54.161C86.8622 53.4102 86.9632 53.1913 87.214 53.1913C87.5172 53.1913 87.5205 53.2868 87.2653 54.7151C86.8797 56.8741 85.5233 60.8358 84.4216 63.0209C80.2979 71.1998 72.1601 77.3253 63.0329 79.1205C56.6359 80.3788 49.5364 79.4958 43.7798 76.7259C36.6094 73.2759 31.1712 67.3774 28.3112 59.9483C27.6753 58.2962 26.9087 55.514 26.666 53.9763C26.5549 53.2735 26.5808 53.1913 26.9139 53.1913C27.2082 53.1913 27.312 53.3555 27.41 53.9763ZM38.17 54.5754C38.5341 55.3367 39.098 56.3435 39.4232 56.8126C39.8992 57.4998 39.9645 57.6986 39.7584 57.8349C39.4775 58.0205 37.4617 57.8968 35.9124 57.5988C33.5884 57.1519 33.9625 58.8533 36.6786 61.0831C37.7541 61.9659 39.7913 62.9922 41.1765 63.349C41.6881 63.4807 42.1717 63.6451 42.2513 63.7144C42.5048 63.9345 40.4656 65.6727 38.8813 66.5867L37.352 67.4692L37.7651 67.906C38.3391 68.5125 39.8399 69.1816 41.2353 69.4531C43.2229 69.8399 46.3434 69.4302 48.5431 68.4938C49.3947 68.1313 49.4055 68.1313 50.4963 68.492C54.8512 69.9322 60.2619 69.8694 64.2829 68.332C68.8999 66.5668 72.8582 62.7994 75.485 57.6698C76.2213 56.2317 76.2936 56.1523 76.764 56.2631C77.8926 56.5287 79.5898 57.3497 81.1225 58.3712C82.0178 58.9678 82.7499 59.397 82.7495 59.3248C82.7479 58.842 81.7332 55.5789 81.2681 54.5603C80.9579 53.8808 80.704 53.295 80.704 53.2582C80.704 53.2215 81.8029 53.1913 83.1461 53.1913H85.5882L85.4601 54.161C85.0038 57.6153 83.3727 61.632 80.9445 65.2815C79.3863 67.6236 75.717 71.3017 73.4261 72.8182C69.2046 75.6126 64.0991 77.394 59.3126 77.7423C48.9749 78.4947 38.9453 73.6903 33.301 65.282C30.8981 61.7025 29.3278 57.8325 28.7132 53.9763L28.588 53.1913H33.048H37.508L38.17 54.5754ZM112.884 55.2337V56.7219L109.303 56.665C105.827 56.6098 105.722 56.619 105.722 56.9775C105.722 57.322 105.886 57.3549 108.141 57.4644C109.471 57.529 111.04 57.5913 111.628 57.6029L112.698 57.624V59.1015V60.579H113.228H113.758L113.879 58.8884C113.946 57.9586 114 56.4211 114 55.4716V53.7454H113.442H112.884V55.2337ZM3.92775 59.797C0.229103 60.2551 0.161023 60.2713 0.161023 60.6983C0.161023 60.9375 0.252725 61.1331 0.36489 61.1331C0.477055 61.1331 2.03565 60.9601 3.82824 60.7488C5.62083 60.5373 7.15617 60.4333 7.24024 60.5179C7.32414 60.6023 7.41882 61.2947 7.45062 62.0566L7.50847 63.4418L4.34628 63.8413C2.60707 64.061 1.03174 64.2481 0.845543 64.2568C0.604473 64.2683 0.524302 64.3922 0.566526 64.6884C0.636653 65.1786 0.8887 65.1768 5.06149 64.6559C6.86413 64.431 7.65896 64.3946 7.71011 64.5346C7.84069 64.8916 8.14482 67.304 8.06874 67.3796C8.02819 67.4198 6.46253 67.633 4.58958 67.853C1.19283 68.2521 1.1839 68.2545 1.1281 68.7271L1.07211 69.201L2.15116 69.0636C2.74454 68.9881 4.55796 68.776 6.18072 68.5923C7.80367 68.4085 9.16509 68.1708 9.20639 68.0639C9.24768 67.9569 9.04939 65.96 8.76573 63.6263C8.35557 60.254 8.19281 59.3776 7.97201 59.3567C7.81949 59.3423 5.99936 59.5405 3.92775 59.797ZM54.3368 61.711C54.2091 61.8401 54.1043 62.0937 54.1043 62.2747C54.1043 62.8775 55.2862 62.9335 57.1319 62.4176C58.3047 62.0898 58.0095 61.9585 55.2204 61.5677C54.8259 61.5123 54.4777 61.5688 54.3368 61.711ZM105.566 61.8257C105.187 63.2022 104.663 66.6894 104.77 67.1145C105.059 68.2548 106.515 69.0254 107.746 68.6883C108.271 68.5443 108.506 68.5913 109.187 68.9779C110.136 69.5168 110.812 69.5612 111.7 69.1432C112.549 68.7432 112.685 68.444 113.194 65.8529C113.73 63.1263 113.731 63.0107 113.209 62.8906C112.463 62.7187 105.988 61.5025 105.819 61.5025C105.728 61.5025 105.615 61.648 105.566 61.8257ZM108.37 62.9627C108.598 63.0231 108.8 63.1372 108.818 63.2164C108.911 63.6144 108.136 67.179 107.896 67.4588C107.513 67.9047 106.516 67.8755 106.088 67.406C105.756 67.0418 105.756 66.9642 106.078 64.9588C106.26 63.8196 106.45 62.8229 106.499 62.7434C106.582 62.6095 107.393 62.7045 108.37 62.9627ZM112.215 63.7264C112.486 63.9844 111.653 68.0123 111.272 68.2888C110.58 68.7916 109.351 68.3138 109.348 67.5406C109.348 67.3179 109.493 66.2766 109.671 65.2266L109.995 63.3176L111.021 63.4416C111.585 63.5099 112.123 63.6379 112.215 63.7264ZM5.18333 76.4168C4.29717 76.8561 3.62065 78.1891 3.80052 79.1412C3.97463 80.0622 5.07451 81.1929 5.95658 81.3573C8.07469 81.7518 9.8351 79.2488 8.71848 77.4305C7.95583 76.1883 6.49081 75.7681 5.18333 76.4168ZM106.221 76.4681C105.421 76.9529 104.804 78.2818 104.97 79.1635C105.139 80.057 106.066 81.0331 106.976 81.2766C109.052 81.8314 110.955 79.4736 109.964 77.5744C109.246 76.1972 107.514 75.6854 106.221 76.4681ZM13.7399 87.7031L11.6007 89.707L11.6539 98.368L11.7071 107.029L13.7931 109.011L15.879 110.993L19.7294 110.997L23.58 111L25.7212 109.015L27.8624 107.029L27.8697 105.413L27.8767 103.797H25.7376H23.5985V104.742C23.5985 105.588 23.5254 105.76 22.9009 106.38L22.2034 107.072L19.7852 107.082L17.3671 107.092L16.6695 106.423L15.972 105.754V98.3473V90.941L16.5855 90.3507L17.1987 89.7604H19.7955H22.392L22.9952 90.4131C23.5198 90.9805 23.5985 91.1956 23.5985 92.0618V93.0583L25.4859 93.0553C26.524 93.0536 27.4867 93.0093 27.625 92.9565C27.8105 92.8859 27.8749 92.441 27.8695 91.2643L27.8622 89.6681L25.6876 87.6826L23.5129 85.6972L19.6959 85.6981L15.879 85.6992L13.7399 87.7031ZM34.0616 87.6918L31.9688 89.6681L31.969 98.3538V107.039L34.094 109.02L36.219 111H40.8045H45.3901L47.5151 109.02L49.6401 107.039V98.3486V89.6579L47.5151 87.6774L45.3901 85.6972L40.7721 85.7064L36.1542 85.7156L34.0616 87.6918ZM87.7196 87.7811L85.5274 89.8527L85.5339 91.3729C85.5416 93.1805 85.461 93.1288 88.1444 93.0466L89.9115 92.9925L89.9685 91.9767C90.0159 91.1297 90.1225 90.8612 90.6094 90.3606L91.1935 89.7604H94.1141H97.0345L97.6117 90.4133C98.1773 91.0527 98.189 91.1048 98.189 92.9615V94.8568L97.4837 95.5407L96.7783 96.2246H94.0425H91.3066V97.9792V99.7338H94.059H96.8114L97.5002 100.434L98.189 101.134V103.389V105.644L97.4818 106.367L96.7744 107.091L94.0992 107.11L91.424 107.13L90.7142 106.442C90.0685 105.816 90.0045 105.666 90.0045 104.775V103.797H87.7724H85.5403V105.346V106.895L87.7501 108.948L89.9597 111H94.0562H98.1528L100.292 109.015L102.431 107.029L102.449 103.433L102.467 99.8378L101.496 98.8607L100.524 97.8839L101.496 97.0399L102.467 96.196V92.9962V89.7962L100.306 87.7467L98.1442 85.6972L94.0278 85.7033L89.9115 85.7094L87.7196 87.7811ZM55.0344 88.2733V90.1104L56.0109 90.1664L56.9875 90.2221L57.0359 98.3948L57.0844 106.567H56.0593H55.0344V108.414V110.261H59.1266H63.2189V108.414V106.567H62.1917H61.1646L61.2152 103.104L61.2658 99.6414H63.0329H64.8L64.9211 100.657C64.9877 101.216 65.0582 102.795 65.0777 104.166L65.1132 106.66L67.0727 108.46L69.0323 110.261H72.8909H76.7495L78.7719 108.348L80.794 106.435L80.7428 98.3288L80.6917 90.2221L78.7231 88.329L76.7544 86.4359H72.8561H68.9579L67.4371 87.8808C66.6006 88.6755 65.6858 89.5369 65.4045 89.7951L64.893 90.2644V93.337V96.4093H63.0329H61.1728V93.2695V90.1298H62.1958H63.2189V88.2829V86.4359H59.1266H55.0344V88.2733ZM44.7483 90.3507L45.3618 90.941V98.3634V105.786L44.6172 106.454L43.8726 107.121H40.8045H37.7364L36.9918 106.454L36.2472 105.786V98.382V90.9784L36.8417 90.3695L37.4362 89.7604H40.7857H44.135L44.7483 90.3507ZM76.0457 90.7681L76.6688 91.4064L76.7594 98.2599L76.8498 105.114L76.135 105.84L75.4201 106.567H72.908H70.396L69.6906 105.883L68.9852 105.2V98.238V91.2762L69.6428 90.7031L70.3003 90.1298H72.8615H75.4227L76.0457 90.7681Z" fill="white"/>
</svg>
