<svg width="176" height="176" viewBox="0 0 176 176" fill="none" xmlns="http://www.w3.org/2000/svg">
<path d="M172.727 175.419C172.958 175.57 173.268 175.505 173.419 175.274L175.88 171.507C176.031 171.276 175.966 170.966 175.735 170.815C175.504 170.664 175.194 170.729 175.043 170.96L172.855 174.309L169.507 172.121C169.275 171.97 168.966 172.034 168.815 172.266C168.664 172.497 168.728 172.807 168.96 172.958L172.727 175.419ZM0.883928 1.48701C57.4041 14.9971 94.6501 31.5476 120.592 58.106C146.533 84.6633 161.232 121.291 172.511 175.103L173.49 174.898C162.198 121.025 147.449 84.1698 121.307 57.4073C95.1671 30.6458 57.6979 14.0392 1.11641 0.514407L0.883928 1.48701Z" fill="#343434"/>
</svg>
