<svg width="126" height="47" viewBox="0 0 126 47" fill="none" xmlns="http://www.w3.org/2000/svg">
<path fill-rule="evenodd" clip-rule="evenodd" d="M5 0.511719C4.33989 1.17333 4.38003 3.48191 5.12656 3.48191C5.7437 3.48191 5.85892 4.5975 5.85892 10.5829C5.85892 16.696 5.75297 17.6838 5.0958 17.6838C4.52846 17.6838 4.37173 18.0932 4.48549 19.2754C4.63831 20.867 4.48549 21.1623 7.68983 21.0129H10.7414V19.4737C10.7414 18.4277 10.4635 17.6819 10.009 17.5065C9.46997 17.2994 9.27663 16.4448 9.27663 14.271V11.3174H11.4737C13.6591 11.3174 13.6708 11.3081 13.6708 9.60342C13.6708 7.89528 13.663 7.8894 11.4459 7.8894H9.22048L9.37086 5.80809C9.52026 3.73706 9.531 3.72628 11.5958 3.57642C13.6171 3.42951 13.6708 3.46428 13.6708 4.92316C13.6708 6.3076 13.7992 6.42024 15.3797 6.42024H17.0885V3.23705V0.0538712H11.067C7.75477 0.0538712 5.1787 0.331991 5 0.511719ZM18.5533 1.76789C18.5533 2.96477 18.7739 3.48191 19.2856 3.48191C19.9028 3.48191 20.018 4.5975 20.018 10.5829C20.018 16.5682 19.9028 17.6838 19.2856 17.6838C18.7739 17.6838 18.5533 18.201 18.5533 19.3978V21.1119H21.7268H24.9004V19.3978C24.9004 18.201 24.6797 17.6838 24.1681 17.6838C23.6149 17.6838 23.4357 17.0854 23.4357 15.2352C23.4357 11.5692 24.4532 12.1269 26.6063 16.9742L28.4665 21.1623L30.2232 21.0144C31.8613 20.8768 31.9687 20.7681 31.81 19.3978C31.7168 18.5898 31.3306 17.7514 30.9522 17.5349C30.5738 17.3185 29.8146 16.2577 29.2653 15.1774L28.2664 13.2132L29.5128 12.2298C30.6973 11.2954 30.7593 11.0084 30.7593 6.4604C30.7593 0.117537 30.6895 0.0538712 23.7633 0.0538712H18.5533V1.76789ZM38.8964 2.59698C38.4912 4.02648 37.4663 7.84042 36.6192 11.0726C35.7721 14.3047 34.7659 17.1941 34.3836 17.4928C34.0018 17.792 33.6888 18.7392 33.6888 19.5976V21.1584L36.7403 21.0129C39.7918 20.867 39.7918 20.867 39.9447 19.2754C40.0745 17.9262 39.9383 17.6838 39.0497 17.6838C38.4282 17.6838 38.0844 17.4345 38.205 17.0717C38.3339 16.6838 39.3632 16.4595 41.0124 16.4595C42.6617 16.4595 43.691 16.6838 43.8198 17.0717C43.9317 17.4086 43.6753 17.6838 43.2501 17.6838C42.692 17.6838 42.4772 18.1608 42.4772 19.3978V21.1119H45.6508H48.8243V19.4336C48.8243 18.2421 48.5831 17.7093 47.9924 17.5947C47.3572 17.4722 46.6248 15.4095 44.8935 8.86639L42.6261 0.298729L41.1296 0.148384C39.7054 0.00538574 39.5975 0.123406 38.8964 2.59698ZM50.2891 1.76789C50.2891 2.96477 50.5098 3.48191 51.0214 3.48191C51.6386 3.48191 51.7538 4.5975 51.7538 10.5829C51.7538 16.5682 51.6386 17.6838 51.0214 17.6838C50.5098 17.6838 50.2891 18.201 50.2891 19.3978V21.1119H53.4627H56.6362V19.3978C56.6362 18.201 56.4156 17.6838 55.9039 17.6838C55.3087 17.6838 55.1793 16.9267 55.2125 13.6436L55.254 9.60342L56.1392 11.5623C56.626 12.6397 57.7265 15.2293 58.5848 17.3165C60.0256 20.821 60.2536 21.1119 61.5641 21.1119H62.9834V12.4957C62.9834 4.21699 63.0225 3.86978 63.9863 3.61708C64.7728 3.41042 64.9569 3.02501 64.8407 1.82617L64.6923 0.298729H61.5187H58.3451L58.1967 1.82617C58.0805 3.02501 58.2645 3.41042 59.0511 3.61708C59.9524 3.85313 60.0539 4.2591 60.0539 7.6274C60.0539 9.68863 59.8723 11.2626 59.6507 11.1255C59.429 10.9879 58.2963 8.44082 57.1338 5.46479L55.0197 0.0538712H52.6546H50.2891V1.76789ZM66.4011 1.76789C66.4011 2.96477 66.6218 3.48191 67.1335 3.48191C67.7506 3.48191 67.8658 4.5975 67.8658 10.5829C67.8658 16.5682 67.7506 17.6838 67.1335 17.6838C66.6218 17.6838 66.4011 18.201 66.4011 19.3978V21.1119H69.5747H72.7483V19.3978C72.7483 18.201 72.5276 17.6838 72.0159 17.6838C70.8036 17.6838 71.18 15.7524 72.7893 13.7141C73.6173 12.6652 74.4508 11.8072 74.6407 11.8072C74.9488 11.8072 77.6307 16.8684 77.6307 17.4497C77.6307 17.5785 77.287 17.6838 76.8676 17.6838C76.3002 17.6838 76.1435 18.0932 76.2573 19.2754L76.4101 20.867L79.7057 21.012L83.0014 21.0041V19.4204C83.0014 18.221 82.7797 17.6838 82.2856 17.6838C81.5723 17.6838 77.8846 11.5794 77.327 9.4756C77.1097 8.65434 77.5126 7.78215 78.8865 6.10045C79.9049 4.85362 81.15 3.7253 81.6519 3.59357C82.3432 3.41237 82.5293 2.9824 82.4174 1.82617L82.2856 0.0538712L78.7293 0.154747L75.1895 0.0107803V1.71059C75.1895 2.87711 75.4346 3.45988 75.9717 3.5686C76.5658 3.68858 76.144 4.49319 74.2184 6.90996C72.8235 8.66071 71.5926 10.1852 71.4832 10.2974C71.3734 10.4095 71.2835 8.92173 71.2835 6.99175C71.2835 4.19838 71.4329 3.48191 72.0159 3.48191C72.5276 3.48191 72.7483 2.96477 72.7483 1.76789V0.0538712H69.5747H66.4011V1.76789ZM84.5574 0.158653C83.8973 0.820266 84.452 3.48191 85.1985 3.48191C85.8156 3.48191 85.9308 4.5975 85.9308 10.5829C85.9308 16.696 85.8249 17.6838 85.1677 17.6838C84.6004 17.6838 84.4436 18.0932 84.5574 19.2754L84.7102 20.867L90.9353 21.0041L97.1604 21.1412V16.9639V12.7866H95.4516H93.7427V15.2352V17.6838H91.5456H89.3485V10.5829C89.3485 4.5975 89.4638 3.48191 90.0809 3.48191C90.5926 3.48191 90.8133 2.96477 90.8133 1.76789V0.0538712H87.9654C86.3986 0.0538712 84.7361 -0.0210742 84.5574 0.158653ZM98.6252 1.76789C98.6252 2.96477 98.8459 3.48191 99.3575 3.48191C99.9747 3.48191 100.09 4.5975 100.09 10.5829C100.09 16.5682 99.9747 17.6838 99.3575 17.6838C98.8459 17.6838 98.6252 18.201 98.6252 19.3978V21.1119H101.799H104.972V19.3978C104.972 18.201 104.752 17.6838 104.24 17.6838C103.623 17.6838 103.508 16.5682 103.508 10.5829C103.508 4.5975 103.623 3.48191 104.24 3.48191C104.752 3.48191 104.972 2.96477 104.972 1.76789V0.0538712H101.799H98.6252V1.76789ZM106.437 1.74096C106.437 2.96183 106.656 3.48191 107.169 3.48191C107.787 3.48191 107.902 4.5975 107.902 10.5829C107.902 16.5682 107.787 17.6838 107.169 17.6838C106.658 17.6838 106.437 18.201 106.437 19.3978V21.1119H109.611H112.784V19.3978C112.784 18.201 112.564 17.6838 112.052 17.6838C111.466 17.6838 111.32 16.9492 111.32 14.0109C111.32 11.9908 111.441 10.338 111.589 10.338C111.736 10.338 112.151 11.0545 112.51 11.9296C116.55 21.7798 116.201 21.177 117.771 21.0163L119.226 20.867L119.158 12.3787C119.092 4.14549 119.121 3.88251 120.114 3.62247C120.922 3.41042 121.106 3.03382 120.989 1.82617C120.845 0.345257 120.76 0.294321 118.213 0.148384C116.768 0.0656214 115.32 0.100393 114.995 0.225761C114.18 0.539672 114.658 3.48191 115.525 3.48191C116.047 3.48191 116.202 4.39819 116.202 7.48147C116.202 9.6808 116.037 11.3218 115.836 11.1284C115.635 10.9345 114.473 8.4183 113.255 5.53728L111.041 0.298729L108.739 0.149368L106.437 0V1.74096ZM27.7322 6.54267L27.8787 9.35856H25.6572H23.4357V6.39232V3.42559L25.5107 3.57642L27.5858 3.72678L27.7322 6.54267ZM41.6604 8.81154C41.8151 9.58824 42.0861 10.8003 42.2624 11.505C42.5582 12.6882 42.4625 12.7866 41.0124 12.7866C39.5624 12.7866 39.4667 12.6882 39.7625 11.505C39.9388 10.8003 40.2098 9.58824 40.3645 8.81154C40.7249 7.00496 41.3 7.00496 41.6604 8.81154ZM0 35.5586V46.0876H3.17358H6.34716V44.426C6.34716 43.4005 6.06691 42.6566 5.6148 42.4823C5.05137 42.2653 4.88243 41.328 4.88243 38.4142C4.88243 36.3319 5.06455 34.8372 5.28719 35.0934C5.50983 35.349 6.53612 37.6522 7.56777 40.211C8.59943 42.7697 9.58861 45.0357 9.76633 45.2463C9.94405 45.4568 11.0392 43.1982 12.1997 40.2266C13.3608 37.255 14.3866 34.824 14.4789 34.824C14.5716 34.824 14.6473 36.587 14.6473 38.7418C14.6473 41.9686 14.5125 42.6596 13.8842 42.6596C13.3168 42.6596 13.1601 43.069 13.2739 44.2511C13.4267 45.8427 13.4267 45.8427 16.4782 45.9887L19.5297 46.1341V44.1522C19.5297 42.7164 19.3276 42.1698 18.7974 42.1698C18.1812 42.1698 18.065 41.0817 18.065 35.3138C18.065 29.5458 18.1812 28.4577 18.7974 28.4577C19.3091 28.4577 19.5297 27.9405 19.5297 26.7436V25.0296L17.2106 25.0311L14.8914 25.0321L12.4888 31.1668C11.1676 34.541 9.93771 37.1296 9.75608 36.9195C9.57494 36.7099 8.34896 33.9523 7.03217 30.7917L4.63831 25.0453L2.31916 25.0374L0 25.0296V35.5586ZM25.4389 31.4978C22.9128 41.4122 22.4958 42.6596 21.7078 42.6596C21.2405 42.6596 20.9945 43.1664 20.9945 44.1287V45.5979H24.4122H27.8299V44.1287C27.8299 42.9686 27.617 42.6596 26.8177 42.6596C26.1205 42.6596 25.8559 42.3956 25.9682 41.8119C26.0971 41.14 26.6171 40.9744 28.4788 41.0131C31.0044 41.0655 32.517 41.9 31.085 42.4509C30.5435 42.6596 30.2711 43.328 30.2711 44.4495V46.1341L33.3226 45.9887C36.3561 45.8437 36.3751 45.8334 36.524 44.2923C36.6378 43.1145 36.462 42.7017 35.7917 42.5729C35.0886 42.4377 34.4622 40.6659 32.7035 33.8387L30.4981 25.2745L28.7976 25.1315L27.0975 24.9885L25.4389 31.4978ZM38.083 26.7436C38.083 27.9405 38.3037 28.4577 38.8154 28.4577C39.4325 28.4577 39.5477 29.5732 39.5477 35.5586C39.5477 41.6718 39.4418 42.6596 38.7846 42.6596C38.2173 42.6596 38.0605 43.069 38.1743 44.2511C38.3271 45.8427 38.3271 45.8427 41.3786 45.9887L44.4302 46.1341V44.4495C44.4302 43.4034 44.1523 42.6576 43.6978 42.4823C42.7472 42.1164 42.6271 37.0948 43.5757 37.3647C43.9116 37.4597 45.0649 39.3505 46.139 41.566C48.0681 45.5455 48.1144 45.5944 49.9229 45.5964C51.6322 45.5979 51.7538 45.5004 51.7538 44.1287C51.7538 43.2492 51.4989 42.6596 51.1186 42.6596C50.6045 42.6596 49.4693 40.8667 47.9406 37.6399C47.8449 37.4377 48.0803 37.2726 48.464 37.2726C50.1568 37.2726 50.7773 35.6081 50.7773 31.0659C50.7773 25.1143 50.6758 25.0296 43.5372 25.0296H38.083V26.7436ZM54.0266 25.9253C53.4163 26.6011 53.2185 27.7804 53.2185 30.7368C53.2185 34.1977 53.3499 34.777 54.3483 35.7182C55.235 36.5537 56.0762 36.7829 58.2543 36.7829H61.0304V39.7212V42.6596H58.8656C56.8672 42.6596 56.6895 42.5562 56.5464 41.3128C56.418 40.1909 56.1275 39.9406 54.8053 39.8128C53.2693 39.6639 53.2185 39.7183 53.2185 41.4999C53.2185 42.83 53.5823 43.7213 54.5304 44.7139C55.6695 45.9064 56.212 46.0876 58.6429 46.0876C60.944 46.0876 61.712 45.8614 62.9458 44.8197C64.3993 43.593 64.4481 43.4211 64.4481 39.518C64.4481 35.9352 64.3222 35.3657 63.3183 34.4195C62.4317 33.5841 61.5904 33.3549 59.4124 33.3549H56.6362V30.9063V28.4577H58.7992C60.6711 28.4577 60.9836 28.606 61.1183 29.5595C61.2379 30.4043 61.6451 30.6971 62.8613 30.8147C64.4389 30.9675 64.4481 30.9552 64.4481 28.7686C64.4481 25.5223 63.7138 25.0296 58.8743 25.0296C55.5807 25.0296 54.6852 25.1952 54.0266 25.9253ZM65.9129 26.7436C65.9129 27.9405 66.1335 28.4577 66.6452 28.4577C67.2624 28.4577 67.3776 29.5732 67.3776 35.5586C67.3776 41.544 67.2624 42.6596 66.6452 42.6596C66.157 42.6596 65.9129 43.1493 65.9129 44.1287V45.5979H69.0864H72.26V44.1811C72.26 43.3736 71.9451 42.6429 71.5277 42.4823C70.9989 42.279 70.7953 41.448 70.7953 39.4916V36.7829H72.9924H75.1895V39.7212C75.1895 42.0068 75.0269 42.6596 74.4571 42.6596C73.9454 42.6596 73.7248 43.1767 73.7248 44.3736V46.0876H76.8983H80.0719V44.426C80.0719 43.4005 79.7917 42.6566 79.3396 42.4823C78.7366 42.2506 78.6072 40.9852 78.6072 35.3289C78.6072 29.5478 78.7234 28.4577 79.3396 28.4577C79.8512 28.4577 80.0719 27.9405 80.0719 26.7436V25.0296H76.8983H73.7248V26.7436C73.7248 27.9405 73.9454 28.4577 74.4571 28.4577C75.0103 28.4577 75.1895 29.0561 75.1895 30.9063V33.3549H72.9924H70.7953V30.9063C70.7953 29.0561 70.9745 28.4577 71.5277 28.4577C72.0393 28.4577 72.26 27.9405 72.26 26.7436V25.0296H69.0864H65.9129V26.7436ZM85.7258 32.204C84.6917 36.1757 83.6454 40.1532 83.4008 41.0425C83.1469 41.9646 82.6376 42.6596 82.2153 42.6596C81.6738 42.6596 81.5161 43.0876 81.628 44.2511L81.7808 45.8427H84.9544H88.1279L88.2808 44.2511C88.4106 42.9044 88.2734 42.6596 87.3907 42.6596C86.6842 42.6596 86.3986 42.3995 86.5055 41.8544C86.6256 41.2408 87.2218 41.0494 89.0102 41.0499C91.6501 41.0503 93.2491 42.0068 91.4153 42.4877C90.6053 42.7002 90.325 43.1365 90.325 44.186V45.5979H93.7427H97.1604V44.1645C97.1604 43.1889 96.8875 42.6787 96.306 42.5665C95.6401 42.4382 94.958 40.5111 93.2154 33.8382L91 25.0039L89.3485 24.9831H87.606L85.7258 32.204ZM98.6252 26.7436C98.6252 27.9405 98.8459 28.4577 99.3575 28.4577C99.9747 28.4577 100.09 29.5732 100.09 35.5586C100.09 41.6718 99.9839 42.6596 99.3268 42.6596C98.7594 42.6596 98.6027 43.069 98.7165 44.2511L98.8693 45.8427H104.972H111.075L111.216 41.5577L111.358 37.2726H109.655H107.953L107.805 39.8437L107.658 42.4147L105.583 42.565L103.508 42.7159V35.5865C103.508 29.5762 103.622 28.4577 104.24 28.4577C104.752 28.4577 104.972 27.9405 104.972 26.7436V25.0296H101.799H98.6252V26.7436ZM112.784 26.7436C112.784 27.9405 113.005 28.4577 113.517 28.4577C114.133 28.4577 114.249 29.5458 114.249 35.3138C114.249 41.0817 114.133 42.1698 113.517 42.1698C112.987 42.1698 112.784 42.7154 112.784 44.1434V46.117L119.009 45.9799L125.234 45.8427L125.376 41.8025L125.518 37.7623H123.816C122.132 37.7623 122.113 37.7868 121.966 40.0885L121.817 42.4147L119.742 42.565L117.667 42.7159V35.5865C117.667 29.5762 117.781 28.4577 118.399 28.4577C118.911 28.4577 119.131 27.9405 119.131 26.7436V25.0296H115.958H112.784V26.7436ZM47.3596 31.1511V33.8446H45.1625H42.9654V31.1511V28.4577H45.1625H47.3596V31.1511ZM90.5506 36.1708C90.8768 37.6958 90.8279 37.7623 89.3871 37.7623C87.6729 37.7623 87.5889 37.4142 88.4873 34.0449L89.0903 31.7824L89.6503 33.1805C89.9584 33.9499 90.3631 35.2951 90.5506 36.1708ZM29.4543 33.7873C29.609 34.564 29.88 35.776 30.0563 36.4807C30.3507 37.6571 30.2525 37.7623 28.8591 37.7623C27.162 37.7623 27.118 37.6169 27.888 34.5513C28.5188 32.038 29.0534 31.7775 29.4543 33.7873Z" fill="white"/>
</svg>
