<svg width="136" height="32" viewBox="0 0 136 32" fill="none" xmlns="http://www.w3.org/2000/svg">
<path fill-rule="evenodd" clip-rule="evenodd" d="M107.91 3.25473L107.908 6.50946L106.173 8.60304L104.438 10.6966H103.711C103.311 10.6966 102.984 10.6691 102.984 10.6355C102.984 10.6019 103.317 9.61458 103.724 8.4414C104.13 7.26815 104.463 6.2823 104.463 6.25056C104.463 6.21875 103.766 6.19278 102.914 6.19278H101.365V3.09639V0H104.639H107.912L107.91 3.25473ZM42.4819 3.80265C49.9978 4.43812 54.855 8.86469 55.7607 15.9042C55.8575 16.6558 55.8824 18.8255 55.799 19.2293L55.7445 19.4932H46.199H36.6533L36.696 20.1793C36.8356 22.4228 37.9096 24.2033 39.5958 24.9871C40.5937 25.4509 41.68 25.6058 43.0451 25.4789C44.703 25.3247 45.7549 24.949 46.5251 24.2361C46.9633 23.8305 47.3943 23.1051 47.4854 22.6198L47.5307 22.3785H51.7192H55.9077L55.8577 22.7127C55.7678 23.3146 55.4671 24.3706 55.1815 25.0878C54.6325 26.4662 53.9421 27.492 52.8733 28.5176C50.9028 30.4084 48.2291 31.458 44.277 31.8923C43.0599 32.026 39.4805 32.0039 38.2979 31.8553C35.3296 31.4824 33.0419 30.6931 31.0016 29.3378C30.449 28.9708 29.9762 28.5698 29.3157 27.9078C28.0347 26.624 27.3087 25.5174 26.6577 23.8563C26.0258 22.2443 25.7162 20.6065 25.6465 18.508C25.4629 12.9827 27.438 8.70733 31.3524 6.1564C34.1458 4.33622 38.329 3.45149 42.4819 3.80265ZM123.891 3.87246C128.035 4.18646 131.299 5.69539 133.096 8.12697C133.795 9.07334 134.298 10.4372 134.329 11.4707L134.344 11.9985H130.516H126.688L126.59 11.6179C126.343 10.6519 125.369 9.92865 123.856 9.58706C123.179 9.43435 121.368 9.43759 120.664 9.59276C118.693 10.027 117.942 11.2735 119.043 12.2844C119.672 12.8621 120.755 13.1784 123.843 13.6868C126.123 14.0621 126.93 14.218 128.048 14.4986C132.066 15.5079 134.237 17.2874 134.99 20.1885C135.227 21.1005 135.29 22.7336 135.127 23.7265C134.404 28.1215 130.918 30.6959 124.592 31.5055C123.204 31.6833 118.874 31.6832 117.626 31.5054C115.193 31.1589 113.309 30.513 111.79 29.505C111.076 29.0317 110.096 28.0822 109.678 27.4598C108.845 26.2194 108.334 24.5527 108.334 23.0771V22.5896H112.519H116.705L116.745 22.8535C116.907 23.9264 117.132 24.4132 117.711 24.9494C118.157 25.3623 118.746 25.6742 119.456 25.8733C120.117 26.0588 122.193 26.0583 122.798 25.8725C123.842 25.5517 124.345 25.0428 124.487 24.1633C124.634 23.255 123.951 22.6339 122.334 22.2048C121.971 22.1084 120.612 21.8365 119.315 21.6003C115.168 20.8452 113.42 20.2965 111.802 19.242C109.652 17.8413 108.546 15.7269 108.546 13.0189C108.546 8.75294 111.418 5.71826 116.676 4.42819C118.781 3.91173 121.572 3.69674 123.891 3.87246ZM65.7353 6.84373C66.3585 8.20804 67.9453 11.6836 69.2615 14.5671C70.5778 17.4506 71.6892 19.8099 71.7313 19.8099C71.7733 19.8099 73.3956 16.3344 75.3364 12.0865L78.8651 4.3631H83.0131C86.9344 4.3631 87.1586 4.36985 87.1145 4.48625C87.0889 4.55395 84.2267 10.5864 80.754 17.8916L74.4402 31.1738L70.3199 31.1744L66.1996 31.175L59.6378 17.8176C56.0289 10.4711 53.076 4.4384 53.076 4.41166C53.076 4.38498 55.6694 4.3631 58.8391 4.3631H64.6023L65.7353 6.84373ZM98.6904 17.7339V31.1047H93.6574H88.6243V17.7339V4.3631H93.6574H98.6904V17.7339ZM10.0661 14.4612V24.2779L17.6157 24.2958L25.1654 24.3137L25.1837 27.7092L25.2019 31.1047H12.601H0V17.8746V4.64459H5.03307H10.0661V14.4612ZM39.8422 9.62795C39.2256 9.7891 38.8149 10.0431 38.3375 10.5587C37.5877 11.3683 37.1729 12.5016 37.055 14.063L37.0063 14.7079H40.8213H44.6362L44.5906 14.0921C44.4591 12.317 44.0368 11.1738 43.2113 10.358C42.46 9.61535 41.0552 9.31099 39.8422 9.62795Z" fill="white"/>
</svg>
