<svg width="213" height="30" viewBox="0 0 213 30" fill="none" xmlns="http://www.w3.org/2000/svg">
<path fill-rule="evenodd" clip-rule="evenodd" d="M0 2.64689V5.29377H5.34728H10.6946V17.2048V29.1158H15.1506H19.6067V17.2048V5.29377H24.954H30.3013V2.64689V0H15.1506H0V2.64689ZM45.1934 5.51435C43.9671 8.54768 41.732 13.6897 40.2267 16.941C38.7223 20.1931 36.8962 24.2631 36.1699 25.9845L34.8482 29.1158H39.094C43.0786 29.1158 43.4315 28.9234 44.845 25.9889L46.3511 22.8629L52.8088 23.1214C59.1436 23.3755 59.2898 23.4347 60.5401 26.2483C61.729 28.9216 62.1104 29.1158 66.1851 29.1158C68.5878 29.1158 70.421 28.777 70.257 28.3632C70.0939 27.9494 67.2011 21.3983 63.8287 13.8053L57.698 0H52.5611H47.4241L45.1934 5.51435ZM79.318 14.5579V29.1158H83.3285H87.3389V14.5579V0H83.3285H79.318V14.5579ZM99.8159 14.4688V28.9384L103.826 29.2543L107.837 29.5693V23.6076V17.6459H116.749H125.661V15.0308V12.4157L116.972 12.1633L108.282 11.911L108.006 8.60238L107.729 5.29377H117.141H126.552V2.64689V0H113.184H99.8159V14.4688ZM136.369 10.8081C136.383 22.5135 136.989 24.6857 141.08 27.6926C144.095 29.9089 155.196 30.7692 160.495 29.1969C166.701 27.3565 167.548 25.2672 167.548 11.7919V0H163.538H159.527V10.5875C159.527 19.999 159.329 21.371 157.745 22.9397C155.117 25.5407 149.389 25.3351 146.564 22.5382C144.494 20.4895 144.377 19.8252 144.377 10.1861V0H140.366H136.356L136.369 10.8081ZM180.025 14.5579V29.1158H184.006H187.987L188.239 19.2985L188.492 9.48027L196.067 19.2711L203.642 29.0619L208.321 29.0884L213 29.1158V14.5579V0H209.019H205.038L204.786 9.92583L204.533 19.8517L196.972 9.92583L189.412 0H184.718H180.025V14.5579ZM55.1314 11.9895C56.1803 14.7017 57.0377 17.2824 57.0377 17.7244C57.0377 18.5909 49.6477 18.8591 48.8037 18.0235C48.2075 17.4324 51.8749 7.06013 52.6805 7.05925C52.98 7.05836 54.0833 9.27734 55.1314 11.9895Z" fill="white"/>
</svg>
