<svg width="29" height="29" viewBox="0 0 29 29" fill="none" xmlns="http://www.w3.org/2000/svg">
<path d="M21.5094 0.00282354C22.0607 0.112404 22.6239 0.17962 23.1606 0.338342C25.344 0.983961 26.9607 2.33677 28.0177 4.3527C28.6503 5.55978 28.9071 6.85553 28.9049 8.21455C28.8981 12.4125 28.8981 16.61 28.9049 20.8072C28.9049 22.6441 28.397 24.32 27.261 25.7722C25.6509 27.8367 23.5155 28.9032 20.9004 28.9178C16.6037 28.9419 12.3065 28.9419 8.00896 28.9178C4.21895 28.902 1.07903 26.3862 0.211664 22.6757C0.0788762 22.0791 0.0133815 21.4694 0.0164073 20.8581C0.00117048 16.576 -0.0112447 12.2933 0.0164073 8.01121C0.0350301 5.2107 1.2331 2.98804 3.51523 1.37823C4.60777 0.607775 5.8459 0.177925 7.18336 0.0446216C7.25671 0.0336642 7.32943 0.0187697 7.40119 0L21.5094 0.00282354ZM26.3152 14.4578H26.3406C26.3406 12.378 26.3406 10.2983 26.3406 8.21851C26.3406 7.3622 26.2277 6.52397 25.8468 5.75126C24.7949 3.61614 23.0556 2.57344 20.6905 2.57005C16.5145 2.56402 12.34 2.56289 8.16698 2.56666C7.32049 2.56666 6.49375 2.68867 5.73134 3.06768C3.65801 4.09796 2.58974 5.79306 2.57676 8.10102C2.55306 12.3453 2.57111 16.5901 2.57393 20.8343C2.57393 21.8511 2.78951 22.8169 3.32957 23.6874C4.43057 25.4616 6.03834 26.3484 8.12014 26.3529C12.2766 26.3619 16.4325 26.3619 20.5878 26.3529C20.9823 26.3531 21.3764 26.3261 21.7672 26.2721C24.2328 25.9264 26.2378 23.771 26.3022 21.2873C26.3614 19.0138 26.3152 16.7353 26.3152 14.4578Z" fill="white"/>
<path d="M14.4749 7.013C18.6458 7.05932 21.9132 10.3936 21.8963 14.491C21.8788 18.6319 18.4816 21.9701 14.3942 21.9204C10.2972 21.8702 6.97046 18.4952 7.00714 14.4249C7.04382 10.3247 10.4168 6.97572 14.4749 7.013ZM14.4421 19.3425C17.1509 19.3425 19.3473 17.1475 19.332 14.4515C19.3274 13.1572 18.8096 11.9177 17.8923 11.0053C16.9751 10.093 15.7335 9.58243 14.4404 9.58588C11.7729 9.58588 9.58103 11.7792 9.57877 14.4526C9.57538 17.1492 11.7576 19.343 14.4416 19.3425H14.4421Z" fill="white"/>
<path d="M22.2004 4.84313C23.2241 4.8228 24.0768 5.66781 24.0932 6.71899C24.1084 7.71199 23.2608 8.57507 22.2535 8.59145C22.0045 8.59998 21.7563 8.55871 21.5235 8.47005C21.2906 8.3814 21.0778 8.24714 20.8974 8.07513C20.717 7.90313 20.5728 7.69684 20.473 7.46833C20.3733 7.23983 20.3201 6.99371 20.3166 6.74438C20.3131 6.49505 20.3593 6.24752 20.4525 6.01628C20.5457 5.78504 20.6841 5.57474 20.8595 5.39769C21.035 5.22064 21.2439 5.0804 21.4742 4.98518C21.7044 4.88996 21.9513 4.84167 22.2004 4.84313Z" fill="white"/>
</svg>
