<svg width="29" height="29" viewBox="0 0 29 29" fill="none" xmlns="http://www.w3.org/2000/svg">
<path d="M21.5904 0.00282354C22.1418 0.112404 22.705 0.17962 23.2416 0.338342C25.425 0.983961 27.0418 2.33677 28.0988 4.3527C28.7314 5.55978 28.9882 6.85553 28.9859 8.21455C28.9791 12.4125 28.9791 16.61 28.9859 20.8072C28.9859 22.6441 28.478 24.32 27.342 25.7722C25.732 27.8367 23.5966 28.9032 20.9815 28.9178C16.6847 28.9419 12.3876 28.9419 8.09002 28.9178C4.3 28.902 1.16009 26.3862 0.292719 22.6757C0.159931 22.0791 0.0944361 21.4694 0.097462 20.8581C0.0822252 16.576 0.06981 12.2933 0.097462 8.01121C0.116085 5.2107 1.31415 2.98804 3.59629 1.37823C4.68882 0.607775 5.92696 0.177925 7.26441 0.0446216C7.33777 0.0336642 7.41048 0.0187697 7.48224 0L21.5904 0.00282354ZM26.3962 14.4578H26.4216C26.4216 12.378 26.4216 10.2983 26.4216 8.21851C26.4216 7.3622 26.3087 6.52397 25.9278 5.75126C24.8759 3.61614 23.1367 2.57344 20.7716 2.57005C16.5956 2.56402 12.421 2.56289 8.24803 2.56666C7.40154 2.56666 6.5748 2.68867 5.8124 3.06768C3.73906 4.09796 2.67079 5.79306 2.65781 8.10102C2.63411 12.3453 2.65217 16.5901 2.65499 20.8343C2.65499 21.8511 2.87056 22.8169 3.41062 23.6874C4.51162 25.4616 6.11939 26.3484 8.20119 26.3529C12.3576 26.3619 16.5135 26.3619 20.6689 26.3529C21.0634 26.3531 21.4575 26.3261 21.8483 26.2721C24.3138 25.9264 26.3189 23.771 26.3832 21.2873C26.4425 19.0138 26.3962 16.7353 26.3962 14.4578Z" fill="white"/>
<path d="M14.5694 19.3763C13.945 20.0015 13.3312 20.6166 12.7167 21.2307C12.5516 21.396 12.3942 21.5752 12.1699 21.671C11.6745 21.8835 11.1131 21.7253 10.8124 21.2881C10.6638 21.0771 10.5949 20.8203 10.6177 20.5632C10.6406 20.3062 10.7538 20.0656 10.9371 19.8842C11.6208 19.1947 12.3072 18.508 12.9965 17.8239C13.0094 17.8109 13.0337 17.8088 13.0437 17.7897C12.4761 17.647 11.9263 17.4411 11.4047 17.1758C11.2238 17.0813 11.0454 16.9822 10.8735 16.8733C10.3389 16.5352 10.1832 15.8611 10.514 15.34C10.8447 14.8189 11.5078 14.6714 12.0416 15.0015C12.693 15.4102 13.4344 15.6533 14.2012 15.7098C15.2242 15.7849 16.1827 15.561 17.0592 15.0232C17.4515 14.7828 17.8502 14.7458 18.2493 14.9795C18.9855 15.4106 18.9806 16.4401 18.2493 16.8898C17.5858 17.2984 16.861 17.5975 16.1027 17.7757C16.1385 17.8137 16.1664 17.8444 16.1956 17.8737C16.8627 18.5411 17.5298 19.2086 18.1967 19.8761C18.3887 20.0656 18.5049 20.3188 18.5232 20.5881C18.5415 20.8573 18.4607 21.1239 18.296 21.3376C18.2009 21.4621 18.0803 21.5648 17.9423 21.6388C17.8044 21.7129 17.6522 21.7565 17.4959 21.7668C17.3397 21.7772 17.1831 21.7539 17.0366 21.6987C16.8901 21.6435 16.7571 21.5576 16.6464 21.4467C15.9837 20.7874 15.3225 20.1263 14.6628 19.4634C14.6347 19.4349 14.6057 19.4112 14.5694 19.3763Z" fill="white"/>
<path d="M18.3428 10.9424C18.3136 13.1361 16.5081 14.7735 14.4367 14.6965C12.3559 14.6188 10.7332 12.874 10.804 10.8066C10.8769 8.7121 12.6489 7.01779 14.8337 7.1663C16.8008 7.2997 18.3395 8.93876 18.3428 10.9424ZM14.5724 12.4825C15.4301 12.4806 16.1332 11.7841 16.1292 10.9393C16.1259 10.0619 15.4341 9.36706 14.5624 9.36588C13.7229 9.36588 13.0117 10.0716 13.0112 10.9074C13.0115 11.7905 13.6988 12.4844 14.5724 12.4825Z" fill="white"/>
</svg>
