<svg width="29" height="29" viewBox="0 0 29 29" fill="none" xmlns="http://www.w3.org/2000/svg">
<path d="M0.0168333 14.4609C0.0168333 11.5074 0.0168333 8.55366 0.0168333 5.59974C0.0168333 4.28279 0.355294 3.08059 1.19513 2.04181C2.11673 0.900297 3.30284 0.234011 4.75587 0.0513687C5.11381 0.0126973 5.4738 -0.00375657 5.83378 0.00210279C11.7048 -0.000700931 17.5763 -0.000700931 23.4481 0.00210279C25.5426 0.00570758 27.1549 0.914715 28.2467 2.70569C28.7559 3.5408 28.9681 4.47324 28.9681 5.44593C28.9721 11.4335 28.9721 17.4214 28.9681 23.4098C28.9681 26.0659 27.3239 28.1729 24.7454 28.7953C24.3262 28.8892 23.8975 28.9337 23.468 28.9281C17.4671 28.9365 11.466 28.9381 5.46466 28.9329C3.07439 28.9329 1.03642 27.4808 0.300587 25.2032C0.124848 24.6435 0.0340632 24.0607 0.0312608 23.4741C0.00360691 20.4683 0.0168333 17.4643 0.0168333 14.4609ZM14.4594 26.3014C17.4653 26.3014 20.4711 26.3014 23.477 26.3014C25.1302 26.3014 26.3356 25.0998 26.3362 23.4488C26.3353 17.4609 26.3349 11.4735 26.3349 5.48679C26.3349 3.83519 25.1326 2.6318 23.4788 2.6312C17.4887 2.62799 11.4988 2.62799 5.50914 2.6312C5.25941 2.63149 5.0106 2.66133 4.7679 2.72011C3.47658 3.03433 2.64997 4.11336 2.64937 5.48378C2.64937 11.4701 2.64937 17.4565 2.64937 23.4428C2.64937 25.0938 3.85171 26.2978 5.50433 26.2996C8.49016 26.3036 11.4752 26.3042 14.4594 26.3014Z" fill="white"/>
<path d="M11.4302 10.194C11.5384 9.8936 11.7879 9.71997 12.0848 9.6665C12.5349 9.58018 12.9913 9.53135 13.4495 9.52051C14.0449 9.51365 14.6401 9.54295 15.232 9.60822C15.773 9.6683 15.9894 9.92604 15.9924 10.465C15.9973 11.264 15.9684 12.0631 15.9648 12.8621C15.9648 13.2226 15.948 13.5867 16.0135 13.9352C16.052 14.1358 16.2041 14.396 16.3742 14.4651C16.5046 14.5179 16.8052 14.3647 16.9152 14.2175C17.4118 13.5597 17.906 12.8922 18.3292 12.1856C18.6647 11.6257 18.9057 11.0069 19.1708 10.4061C19.2911 10.1363 19.454 9.99874 19.757 9.99694C20.7369 9.99273 21.7168 9.97351 22.6961 9.96089C22.7763 9.95617 22.8567 9.95778 22.9366 9.9657C23.4109 10.0312 23.5492 10.2529 23.3971 10.7161C23.129 11.526 22.6144 12.1923 22.1262 12.87C21.7427 13.3951 21.3387 13.9039 20.9455 14.42C20.9269 14.444 20.9088 14.4675 20.8914 14.4915C20.3588 15.2233 20.4159 15.5567 21.0675 16.187C21.7342 16.8322 22.3667 17.5153 22.9967 18.1954C23.1428 18.3528 23.2456 18.5559 23.3436 18.7518C23.584 19.2288 23.3905 19.6175 22.8626 19.6854C22.4653 19.7283 22.066 19.7502 21.6663 19.7509C21.1463 19.7635 20.6251 19.7659 20.1033 19.7611C19.4804 19.7551 19.0031 19.4337 18.5895 19.0101C18.2198 18.6316 17.8747 18.2291 17.5134 17.841C17.4156 17.7405 17.3096 17.6483 17.1966 17.5652C16.7926 17.254 16.4259 17.3159 16.2347 17.7869C16.1004 18.1391 16.0215 18.51 16.0009 18.8863C15.9594 19.5064 15.7676 19.7028 15.14 19.7275C14.1132 19.7713 13.1122 19.6836 12.148 19.2955C10.9065 18.795 9.94105 17.9503 9.12646 16.9127C7.74737 15.1572 6.71095 13.1944 5.76711 11.1793C5.67874 10.9901 5.58255 10.8032 5.5062 10.6092C5.38236 10.2925 5.47374 10.1069 5.79597 10.0192C5.9309 9.98299 6.06988 9.96402 6.20958 9.96269C6.95082 9.95729 7.69207 9.96269 8.43391 9.96269C8.84451 9.96269 9.13127 10.1243 9.29719 10.519C9.80759 11.7362 10.4178 12.9006 11.2264 13.9508C11.3601 14.1249 11.5159 14.2808 11.6899 14.4146C11.9772 14.6345 12.2742 14.5546 12.3638 14.2061C12.471 13.8124 12.5315 13.4075 12.5441 12.9997C12.5525 12.3935 12.5069 11.7849 12.4564 11.1799C12.4125 10.6518 12.0776 10.3712 11.5774 10.2643C11.539 10.2559 11.5005 10.2475 11.4626 10.2367C11.4536 10.2306 11.4494 10.2192 11.4302 10.194Z" fill="white"/>
</svg>
