<svg width="29" height="29" viewBox="0 0 29 29" fill="none" xmlns="http://www.w3.org/2000/svg">
<path d="M21.6051 0.00282354C22.1564 0.112404 22.7196 0.17962 23.2563 0.338342C25.4397 0.983961 27.0564 2.33677 28.1134 4.3527C28.746 5.55978 29.0028 6.85553 29.0006 8.21455C28.9938 12.4125 28.9938 16.61 29.0006 20.8072C29.0006 22.6441 28.4927 24.32 27.3567 25.7722C25.7466 27.8367 23.6112 28.9032 20.9961 28.9178C16.6994 28.9419 12.4022 28.9419 8.10467 28.9178C4.31465 28.902 1.17474 26.3862 0.307367 22.6757C0.174579 22.0791 0.109085 21.4694 0.11211 20.8581C0.0968736 16.576 0.0844584 12.2933 0.11211 8.01121C0.130733 5.2107 1.3288 2.98804 3.61094 1.37823C4.70347 0.607775 5.9416 0.177925 7.27906 0.0446216C7.35242 0.0336642 7.42513 0.0187697 7.49689 0L21.6051 0.00282354ZM26.4109 14.4578H26.4363C26.4363 12.378 26.4363 10.2983 26.4363 8.21851C26.4363 7.3622 26.3234 6.52397 25.9425 5.75126C24.8906 3.61614 23.1513 2.57344 20.7862 2.57005C16.6102 2.56402 12.4357 2.56289 8.26268 2.56666C7.41619 2.56666 6.58945 2.68867 5.82705 3.06768C3.75371 4.09796 2.68544 5.79306 2.67246 8.10102C2.64876 12.3453 2.66682 16.5901 2.66964 20.8343C2.66964 21.8511 2.88521 22.8169 3.42527 23.6874C4.52627 25.4616 6.13404 26.3484 8.21584 26.3529C12.3723 26.3619 16.5282 26.3619 20.6835 26.3529C21.078 26.3531 21.4721 26.3261 21.8629 26.2721C24.3285 25.9264 26.3335 23.771 26.3979 21.2873C26.4571 19.0138 26.4109 16.7353 26.4109 14.4578Z" fill="white"/>
<path d="M14.5286 8.35385C16.6289 8.35385 18.7297 8.3496 20.83 8.3564C21.4873 8.35866 22.0709 8.58298 22.5667 9.0197C23.1857 9.56462 23.4758 10.2537 23.477 11.0654C23.48 13.4067 23.48 15.748 23.477 18.0893C23.477 18.8274 23.2126 19.4737 22.685 19.9911C22.1706 20.4967 21.5336 20.7586 20.8017 20.7586C16.6149 20.7603 12.4282 20.7603 8.24154 20.7586C7.51563 20.7586 6.88461 20.4913 6.37476 19.9886C5.85234 19.4734 5.58913 18.8319 5.58799 18.0984C5.58427 15.8374 5.5897 13.5764 5.58398 11.3158C5.58398 10.898 5.60313 10.4871 5.75546 10.0942C6.07526 9.2729 6.65598 8.72402 7.51163 8.46686C7.80142 8.37962 8.09607 8.35357 8.39758 8.35357C10.4415 8.35545 12.4852 8.35555 14.5286 8.35385ZM12.7527 10.8836V17.5515L17.8541 14.2162L12.7527 10.8836Z" fill="white"/>
</svg>
